<svg width="99" height="99" viewBox="0 0 99 99" fill="none" xmlns="http://www.w3.org/2000/svg">
<circle cx="49.2296" cy="49.2862" r="47.6038" fill="url(#paint0_radial_2_607)" stroke="#00E76A" stroke-width="3"/>
<path d="M22.4649 46.3781C23.6066 45.247 25.1444 44.6022 26.7538 44.5798C28.3632 44.5574 29.9184 45.1591 31.0913 46.2581L34.0349 49.0164L34.0349 25.293C34.0349 23.255 35.5592 21.3675 37.7726 21.3675C38.7639 21.3675 39.7146 21.7601 40.4156 22.4589C41.1165 23.1578 41.5103 24.1056 41.5103 25.0939L41.5103 21.7246C41.5103 19.5833 43.1048 17.5377 45.4965 17.5377C46.5539 17.5381 47.5678 17.9572 48.3153 18.7027C49.0628 19.4482 49.4827 20.4592 49.4827 21.5134L49.4827 21.2763C49.4827 19.2566 51.0071 17.5377 53.2205 17.5377C54.2118 17.5377 55.1625 17.9303 55.8635 18.6292C56.5644 19.328 56.9582 20.2758 56.9582 21.2641L56.9582 27.5544C56.9586 26.6885 57.3039 25.8582 57.9182 25.246C58.5325 24.6339 59.3655 24.29 60.2341 24.29C62.199 24.29 63.5099 25.8933 63.5099 27.6866L63.5099 54.4936C63.5116 57.7682 62.3591 60.9392 60.2539 63.4526L60.2539 76.7778L36.0821 76.7778L36.0821 63.6608C35.1755 62.9348 34.3283 62.1379 33.5486 61.2778L22.4009 49.217C22.0402 48.828 21.8452 48.3144 21.8572 47.7847C21.8691 47.255 22.087 46.7507 22.4649 46.3781Z" fill="url(#paint1_linear_2_607)"/>
<path d="M56.3256 40.3386L57.5909 40.3386L57.5908 27.5544L56.3256 27.5544L56.3256 40.3386Z" fill="#00E76A"/>
<path d="M48.8502 40.3386L50.1154 40.3386L50.1154 21.521L48.8501 21.521L48.8502 40.3386Z" fill="#00E76A"/>
<path d="M40.8777 40.3386L42.1429 40.3386L42.1429 25.1015L40.8777 25.1015L40.8777 40.3386Z" fill="#00E76A"/>
<path d="M34.0349 48.3857L41.6094 48.3857C42.9907 48.3862 44.3556 48.6833 45.6114 49.2569C46.8672 49.8304 47.9843 50.6669 48.8867 51.7094L47.9279 52.5347C47.1441 51.6285 46.1735 50.9015 45.0823 50.4032C43.9912 49.9049 42.805 49.647 41.6048 49.6471L34.0303 49.6471L34.0349 48.3857Z" fill="#00E76A"/>
<path d="M45.4966 16.9146C46.2818 16.9151 47.0539 17.115 47.7402 17.4955C48.4264 17.876 49.0041 18.4245 49.4187 19.0894C49.7974 18.4192 50.3505 17.8635 51.0196 17.4807C51.6887 17.0979 52.4491 16.9023 53.2205 16.9146C54.3792 16.9158 55.4901 17.3752 56.3095 18.1921C57.1288 19.009 57.5896 20.1165 57.5908 21.2717L57.5908 24.6851C58.3108 24.023 59.2546 23.6556 60.2341 23.6562C62.4261 23.6562 64.1426 25.4268 64.1426 27.6851L64.1426 54.4936C64.1426 58.1334 62.9658 61.5119 60.824 64.0347L60.824 76.7201C60.824 76.803 60.8076 76.8852 60.7757 76.9618C60.7438 77.0384 60.6971 77.108 60.6382 77.1666C60.5793 77.2252 60.5094 77.2716 60.4324 77.3032C60.3555 77.3348 60.2731 77.351 60.1899 77.3508L36.0211 77.3508C35.9379 77.351 35.8555 77.3348 35.7786 77.3032C35.7016 77.2716 35.6317 77.2252 35.5728 77.1666C35.5139 77.108 35.4672 77.0384 35.4353 76.9618C35.4034 76.8852 35.387 76.803 35.387 76.7201L35.387 64.0635C34.9297 63.6076 33.7559 62.4465 33.0806 61.7003L21.936 49.6456C21.4633 49.1367 21.2075 48.4645 21.2229 47.7711C21.2382 47.0777 21.5235 46.4174 22.0183 45.9298C23.2732 44.6771 24.969 43.9624 26.7446 43.938C28.5202 43.9136 30.2352 44.5814 31.5242 45.7991L33.4023 47.5575L33.4023 25.293C33.4023 22.7383 35.3214 20.7337 37.7726 20.7337C38.3501 20.7334 38.9219 20.8476 39.4547 21.0696C39.9875 21.2916 40.4707 21.6171 40.8762 22.0271L40.8762 21.7231C40.8762 18.717 43.2253 16.9146 45.4966 16.9146ZM49.4828 22.1517C49.315 22.1517 49.1541 22.0852 49.0354 21.967C48.9168 21.8487 48.8502 21.6882 48.8502 21.521C48.8502 20.6342 48.4968 19.7838 47.8679 19.1568C47.239 18.5298 46.386 18.1775 45.4966 18.1775C43.3975 18.1775 42.143 19.986 42.143 21.7337L42.143 25.1015C42.135 25.2636 42.0648 25.4165 41.9469 25.5284C41.829 25.6403 41.6724 25.7028 41.5096 25.7028C41.3468 25.7028 41.1902 25.6403 41.0723 25.5284C40.9544 25.4165 40.8842 25.2636 40.8762 25.1015C40.8754 24.281 40.5482 23.4943 39.9664 22.9139C39.3846 22.3336 38.5956 22.007 37.7726 22.0058C35.829 22.0058 34.6675 23.6775 34.6675 25.3006L34.6675 49.0164C34.667 49.1394 34.6304 49.2596 34.5623 49.3621C34.4942 49.4647 34.3975 49.5451 34.2841 49.5936C34.1707 49.6421 34.0455 49.6564 33.9241 49.6348C33.8026 49.6133 33.6901 49.5568 33.6004 49.4723L30.6569 46.7216C29.6064 45.7292 28.2088 45.185 26.7618 45.2048C25.3148 45.2247 23.9327 45.8071 22.9101 46.828C22.6483 47.0858 22.4974 47.4351 22.4894 47.8019C22.4815 48.1687 22.617 48.5241 22.8674 48.793L34.0166 60.8553C34.8291 61.7535 36.4479 63.3386 36.4556 63.3553C36.5165 63.4146 36.5648 63.4855 36.5976 63.5639C36.6303 63.6422 36.6468 63.7264 36.6461 63.8113L36.6461 76.0894L59.5573 76.0894L59.5573 63.7991C59.5557 63.6464 59.6099 63.4985 59.7097 63.3827C61.7478 61.0727 62.8712 57.9116 62.8712 54.4936L62.8712 27.6866C62.8712 26.3462 61.9444 24.9207 60.228 24.9207C59.5275 24.9215 58.8558 25.1992 58.3604 25.6929C57.8649 26.1866 57.586 26.856 57.5847 27.5544C57.5847 27.7217 57.5181 27.8821 57.3995 28.0004C57.2808 28.1187 57.1199 28.1851 56.9521 28.1851C56.7844 28.1851 56.6235 28.1187 56.5048 28.0004C56.3862 27.8821 56.3195 27.7217 56.3195 27.5544L56.3195 21.2717C56.3183 20.4511 55.9908 19.6644 55.4087 19.0841C54.8267 18.5037 54.0376 18.1772 53.2144 18.176C52.7979 18.1696 52.3844 18.2478 51.9991 18.4059C51.6139 18.5639 51.2649 18.7986 50.9736 19.0954C50.4114 19.6854 50.1015 20.4702 50.1093 21.2839L50.1093 21.521C50.1093 21.6872 50.0435 21.8467 49.9261 21.9648C49.8088 22.0829 49.6495 22.1501 49.4828 22.1517V22.1517Z" fill="#00E76A"/>
<path d="M62.8301 79.2687L62.8301 68.9404C62.8301 68.7726 62.6936 68.6365 62.5252 68.6365L33.8123 68.6365C33.6439 68.6365 33.5074 68.7726 33.5074 68.9404L33.5074 79.2687C33.5074 79.4366 33.6439 79.5727 33.8123 79.5727L62.5252 79.5727C62.6936 79.5727 62.8301 79.4366 62.8301 79.2687Z" fill="url(#paint2_linear_2_607)"/>
<path d="M55.5543 77.907C55.5541 77.9737 55.5671 78.0398 55.5926 78.1015C55.6181 78.1632 55.6556 78.2192 55.703 78.2664C55.7503 78.3136 55.8065 78.3509 55.8683 78.3764C55.9302 78.4018 55.9965 78.4148 56.0634 78.4146V78.4146C56.1302 78.4146 56.1963 78.4015 56.258 78.3759C56.3197 78.3504 56.3757 78.313 56.4229 78.2658C56.4701 78.2187 56.5074 78.1627 56.5328 78.1011C56.5583 78.0396 56.5712 77.9736 56.571 77.907V77.907C56.571 77.7728 56.5176 77.6441 56.4224 77.5492C56.3272 77.4542 56.198 77.4009 56.0634 77.4009C55.9966 77.4007 55.9305 77.4137 55.8687 77.439C55.8069 77.4644 55.7508 77.5016 55.7035 77.5486C55.6562 77.5956 55.6187 77.6515 55.5931 77.713C55.5675 77.7745 55.5543 77.8404 55.5543 77.907V77.907Z" fill="#00E76A"/>
<path d="M55.5543 75.3721C55.5543 75.4386 55.5675 75.5046 55.5931 75.5661C55.6187 75.6276 55.6562 75.6834 55.7035 75.7305C55.7508 75.7775 55.8069 75.8147 55.8687 75.8401C55.9305 75.8654 55.9966 75.8783 56.0634 75.8781V75.8781C56.1934 75.871 56.3158 75.8145 56.4053 75.7203C56.4948 75.626 56.5447 75.5011 56.5447 75.3713C56.5447 75.2415 56.4948 75.1166 56.4053 75.0223C56.3158 74.9281 56.1934 74.8716 56.0634 74.8645C55.9965 74.8643 55.9302 74.8773 55.8683 74.9027C55.8065 74.9281 55.7503 74.9655 55.703 75.0127C55.6556 75.0599 55.6181 75.1159 55.5926 75.1776C55.5671 75.2392 55.5541 75.3053 55.5543 75.3721V75.3721Z" fill="#00E76A"/>
<path d="M53.0025 77.907C53.0025 77.9737 53.0157 78.0397 53.0413 78.1013C53.0668 78.1628 53.1043 78.2188 53.1516 78.2659C53.1989 78.3131 53.255 78.3505 53.3168 78.376C53.3786 78.4015 53.4448 78.4146 53.5116 78.4146C53.5785 78.4146 53.6447 78.4015 53.7065 78.376C53.7682 78.3505 53.8244 78.3131 53.8716 78.2659C53.9189 78.2188 53.9564 78.1628 53.982 78.1013C54.0076 78.0397 54.0208 77.9737 54.0208 77.907V77.907C54.0208 77.7724 53.9671 77.6433 53.8716 77.5481C53.7762 77.4529 53.6467 77.3994 53.5116 77.3994C53.3766 77.3994 53.2471 77.4529 53.1516 77.5481C53.0561 77.6433 53.0025 77.7724 53.0025 77.907V77.907Z" fill="#00E76A"/>
<path d="M53.0025 75.372C53.0025 75.4724 53.0324 75.5706 53.0883 75.654C53.1443 75.7375 53.2238 75.8026 53.3168 75.841C53.4099 75.8794 53.5122 75.8895 53.611 75.8699C53.7098 75.8503 53.8005 75.802 53.8717 75.731C53.9429 75.66 53.9914 75.5695 54.011 75.4711C54.0307 75.3726 54.0206 75.2705 53.9821 75.1778C53.9435 75.085 53.8783 75.0058 53.7945 74.95C53.7108 74.8942 53.6124 74.8644 53.5117 74.8644C53.4448 74.8642 53.3785 74.8772 53.3166 74.9027C53.2547 74.9281 53.1985 74.9655 53.1512 75.0127C53.1039 75.0598 53.0664 75.1159 53.0409 75.1775C53.0154 75.2392 53.0023 75.3053 53.0025 75.372V75.372Z" fill="#00E76A"/>
<path d="M54.2815 74.1031C54.2815 74.2035 54.3113 74.3016 54.3673 74.3851C54.4232 74.4685 54.5027 74.5336 54.5958 74.572C54.6888 74.6104 54.7912 74.6205 54.8899 74.6009C54.9887 74.5813 55.0794 74.533 55.1506 74.462C55.2218 74.391 55.2703 74.3005 55.2899 74.2021C55.3096 74.1036 55.2995 74.0016 55.261 73.9088C55.2224 73.8161 55.1572 73.7368 55.0735 73.681C54.9897 73.6252 54.8913 73.5955 54.7906 73.5955C54.7237 73.5955 54.6575 73.6086 54.5958 73.6341C54.534 73.6596 54.4779 73.697 54.4306 73.7441C54.3833 73.7913 54.3458 73.8472 54.3202 73.9088C54.2946 73.9704 54.2815 74.0364 54.2815 74.1031Z" fill="#00E76A"/>
<path d="M54.2815 76.6395C54.2815 76.7399 54.3113 76.8381 54.3673 76.9215C54.4232 77.005 54.5027 77.0701 54.5958 77.1085C54.6888 77.1469 54.7912 77.157 54.8899 77.1374C54.9887 77.1178 55.0794 77.0694 55.1506 76.9985C55.2218 76.9275 55.2703 76.837 55.2899 76.7386C55.3096 76.6401 55.2995 76.538 55.261 76.4453C55.2224 76.3525 55.1572 76.2732 55.0735 76.2175C54.9897 76.1617 54.8913 76.1319 54.7906 76.1319C54.6557 76.1323 54.5264 76.1859 54.431 76.281C54.3356 76.3761 54.2819 76.505 54.2815 76.6395V76.6395Z" fill="#00E76A"/>
<path d="M60.6426 77.907C60.6424 77.9736 60.6554 78.0396 60.6808 78.1011C60.7062 78.1627 60.7436 78.2187 60.7908 78.2658C60.8379 78.313 60.8939 78.3504 60.9556 78.3759C61.0173 78.4015 61.0834 78.4146 61.1502 78.4146V78.4146C61.2171 78.4148 61.2834 78.4018 61.3453 78.3764C61.4072 78.3509 61.4634 78.3136 61.5107 78.2664C61.558 78.2192 61.5955 78.1632 61.621 78.1015C61.6465 78.0398 61.6596 77.9737 61.6594 77.907C61.6594 77.8404 61.6462 77.7745 61.6206 77.713C61.595 77.6515 61.5575 77.5956 61.5102 77.5486C61.4629 77.5016 61.4067 77.4644 61.345 77.439C61.2832 77.4137 61.217 77.4007 61.1502 77.4009V77.4009C61.0156 77.4009 60.8865 77.4542 60.7913 77.5492C60.6961 77.6441 60.6426 77.7728 60.6426 77.907V77.907Z" fill="#00E76A"/>
<path d="M60.6426 75.3721C60.6426 75.5063 60.6961 75.635 60.7913 75.7299C60.8865 75.8248 61.0156 75.8781 61.1502 75.8781V75.8781C61.2193 75.8819 61.2885 75.8716 61.3534 75.8478C61.4184 75.8241 61.4778 75.7874 61.5281 75.7399C61.5784 75.6925 61.6184 75.6353 61.6457 75.572C61.6731 75.5086 61.6872 75.4403 61.6872 75.3713C61.6872 75.3023 61.6731 75.234 61.6457 75.1707C61.6184 75.1073 61.5784 75.0501 61.5281 75.0027C61.4778 74.9553 61.4184 74.9185 61.3534 74.8948C61.2885 74.871 61.2193 74.8607 61.1502 74.8645C61.0834 74.8645 61.0173 74.8776 60.9556 74.9031C60.8939 74.9287 60.8379 74.9661 60.7907 75.0132C60.7436 75.0604 60.7062 75.1164 60.6808 75.1779C60.6554 75.2395 60.6424 75.3055 60.6426 75.3721Z" fill="#00E76A"/>
<path d="M58.0985 77.907C58.0947 77.9759 58.105 78.0448 58.1289 78.1096C58.1527 78.1744 58.1895 78.2336 58.2371 78.2837C58.2847 78.3338 58.342 78.3737 58.4056 78.401C58.4692 78.4283 58.5376 78.4424 58.6068 78.4424C58.676 78.4424 58.7445 78.4283 58.8081 78.401C58.8717 78.3737 58.929 78.3338 58.9766 78.2837C59.0241 78.2336 59.061 78.1744 59.0848 78.1096C59.1086 78.0448 59.119 77.9759 59.1152 77.907V77.907C59.1081 77.7774 59.0514 77.6554 58.9569 77.5661C58.8623 77.4769 58.737 77.4272 58.6068 77.4272C58.4766 77.4272 58.3514 77.4769 58.2568 77.5661C58.1622 77.6554 58.1056 77.7774 58.0985 77.907V77.907Z" fill="#00E76A"/>
<path d="M58.0985 75.372C58.0985 75.4724 58.1283 75.5706 58.1843 75.654C58.2402 75.7375 58.3197 75.8026 58.4128 75.841C58.5058 75.8794 58.6082 75.8895 58.7069 75.8699C58.8057 75.8503 58.8964 75.802 58.9676 75.731C59.0388 75.66 59.0873 75.5695 59.107 75.4711C59.1266 75.3726 59.1165 75.2705 59.078 75.1778C59.0395 75.085 58.9742 75.0058 58.8905 74.95C58.8067 74.8942 58.7083 74.8644 58.6076 74.8644C58.5407 74.8642 58.4744 74.8772 58.4125 74.9027C58.3507 74.9281 58.2945 74.9655 58.2471 75.0127C58.1998 75.0598 58.1623 75.1159 58.1368 75.1775C58.1113 75.2392 58.0983 75.3053 58.0985 75.372V75.372Z" fill="#00E76A"/>
<path d="M59.3698 74.1031C59.3698 74.2035 59.3996 74.3016 59.4556 74.3851C59.5115 74.4685 59.591 74.5336 59.6841 74.572C59.7771 74.6104 59.8795 74.6205 59.9782 74.6009C60.077 74.5813 60.1677 74.533 60.2389 74.462C60.3101 74.391 60.3586 74.3005 60.3783 74.2021C60.3979 74.1036 60.3878 74.0016 60.3493 73.9088C60.3108 73.8161 60.2455 73.7368 60.1618 73.681C60.078 73.6252 59.9796 73.5955 59.8789 73.5955C59.7439 73.5955 59.6144 73.6489 59.5189 73.7441C59.4234 73.8393 59.3698 73.9684 59.3698 74.1031V74.1031Z" fill="#00E76A"/>
<path d="M59.3698 76.6395C59.3698 76.7399 59.3996 76.8381 59.4556 76.9215C59.5115 77.005 59.591 77.0701 59.6841 77.1085C59.7771 77.1469 59.8795 77.157 59.9782 77.1374C60.077 77.1178 60.1677 77.0694 60.2389 76.9985C60.3101 76.9275 60.3586 76.837 60.3782 76.7386C60.3979 76.6401 60.3878 76.538 60.3493 76.4453C60.3107 76.3525 60.2455 76.2732 60.1618 76.2175C60.078 76.1617 59.9796 76.1319 59.8789 76.1319C59.744 76.1323 59.6147 76.1859 59.5193 76.281C59.4239 76.3761 59.3702 76.505 59.3698 76.6395V76.6395Z" fill="#00E76A"/>
<path d="M56.8256 74.1031C56.8256 74.2035 56.8555 74.3016 56.9114 74.3851C56.9674 74.4685 57.0469 74.5336 57.1399 74.572C57.2329 74.6104 57.3353 74.6205 57.4341 74.6009C57.5328 74.5813 57.6236 74.533 57.6948 74.462C57.766 74.391 57.8145 74.3005 57.8341 74.2021C57.8537 74.1036 57.8437 74.0016 57.8051 73.9088C57.7666 73.8161 57.7013 73.7368 57.6176 73.681C57.5339 73.6252 57.4354 73.5955 57.3348 73.5955C57.1997 73.5955 57.0702 73.6489 56.9747 73.7441C56.8793 73.8393 56.8256 73.9684 56.8256 74.1031Z" fill="#00E76A"/>
<path d="M56.8256 76.6395C56.8256 76.7399 56.8555 76.8381 56.9114 76.9215C56.9674 77.005 57.0469 77.0701 57.1399 77.1085C57.2329 77.1469 57.3353 77.157 57.4341 77.1374C57.5328 77.1178 57.6236 77.0694 57.6948 76.9985C57.766 76.9275 57.8145 76.837 57.8341 76.7386C57.8537 76.6401 57.8437 76.538 57.8051 76.4453C57.7666 76.3525 57.7013 76.2732 57.6176 76.2175C57.5339 76.1617 57.4354 76.1319 57.3348 76.1319C57.1998 76.1323 57.0706 76.1859 56.9752 76.281C56.8798 76.3761 56.826 76.505 56.8256 76.6395V76.6395Z" fill="#00E76A"/>
<path d="M55.5543 72.8356C55.5543 72.9022 55.5675 72.9682 55.593 73.0298C55.6186 73.0914 55.6561 73.1474 55.7034 73.1945C55.7507 73.2416 55.8068 73.279 55.8686 73.3045C55.9303 73.33 55.9966 73.3432 56.0634 73.3432C56.1982 73.3428 56.3273 73.2891 56.4225 73.194C56.5176 73.0988 56.571 72.9699 56.571 72.8356V72.8356C56.5712 72.769 56.5583 72.703 56.5328 72.6414C56.5074 72.5799 56.4701 72.5239 56.4229 72.4767C56.3757 72.4296 56.3197 72.3922 56.258 72.3666C56.1963 72.3411 56.1302 72.328 56.0634 72.328V72.328C55.9965 72.3278 55.9302 72.3408 55.8683 72.3662C55.8065 72.3916 55.7503 72.429 55.703 72.4762C55.6556 72.5234 55.6181 72.5794 55.5926 72.6411C55.5671 72.7028 55.5541 72.7689 55.5543 72.8356V72.8356Z" fill="#00E76A"/>
<path d="M55.5543 70.2991C55.5543 70.3658 55.5675 70.4318 55.593 70.4933C55.6186 70.5549 55.6561 70.6109 55.7034 70.658C55.7507 70.7052 55.8068 70.7426 55.8686 70.7681C55.9304 70.7936 55.9966 70.8067 56.0634 70.8067C56.1985 70.8067 56.3279 70.7532 56.4234 70.658C56.5189 70.5628 56.5726 70.4337 56.5726 70.2991C56.5726 70.1645 56.5189 70.0354 56.4234 69.9402C56.3279 69.845 56.1985 69.7915 56.0634 69.7915V69.7915C55.9966 69.7915 55.9304 69.8046 55.8686 69.8301C55.8068 69.8556 55.7507 69.893 55.7034 69.9402C55.6561 69.9873 55.6186 70.0433 55.593 70.1049C55.5675 70.1664 55.5543 70.2324 55.5543 70.2991Z" fill="#00E76A"/>
<path d="M53.0025 72.8356C53.0025 72.9022 53.0157 72.9682 53.0413 73.0298C53.0668 73.0914 53.1043 73.1474 53.1516 73.1945C53.1989 73.2416 53.255 73.279 53.3168 73.3045C53.3786 73.33 53.4448 73.3432 53.5116 73.3432C53.5785 73.3432 53.6447 73.33 53.7065 73.3045C53.7682 73.279 53.8244 73.2416 53.8716 73.1945C53.9189 73.1474 53.9564 73.0914 53.982 73.0298C54.0076 72.9682 54.0208 72.9022 54.0208 72.8356V72.8356C54.0208 72.7009 53.9671 72.5718 53.8716 72.4766C53.7762 72.3815 53.6467 72.328 53.5116 72.328C53.3766 72.328 53.2471 72.3815 53.1516 72.4766C53.0561 72.5718 53.0025 72.7009 53.0025 72.8356V72.8356Z" fill="#00E76A"/>
<path d="M54.0284 70.2991C54.0284 70.1987 53.9985 70.1006 53.9426 70.0171C53.8867 69.9336 53.8071 69.8686 53.7141 69.8301C53.6211 69.7917 53.5187 69.7817 53.4199 69.8013C53.3212 69.8208 53.2305 69.8692 53.1592 69.9402C53.088 70.0112 53.0396 70.1016 53.0199 70.2001C53.0003 70.2985 53.0103 70.4006 53.0489 70.4933C53.0874 70.5861 53.1527 70.6654 53.2364 70.7212C53.3201 70.7769 53.4186 70.8067 53.5193 70.8067C53.6542 70.8063 53.7834 70.7527 53.8788 70.6576C53.9742 70.5625 54.028 70.4336 54.0284 70.2991V70.2991Z" fill="#00E76A"/>
<path d="M54.2815 71.5666C54.2815 71.667 54.3113 71.7651 54.3673 71.8486C54.4232 71.9321 54.5027 71.9971 54.5958 72.0355C54.6888 72.074 54.7912 72.084 54.8899 72.0644C54.9887 72.0448 55.0794 71.9965 55.1506 71.9255C55.2218 71.8545 55.2703 71.7641 55.2899 71.6656C55.3096 71.5671 55.2995 71.4651 55.261 71.3723C55.2224 71.2796 55.1572 71.2003 55.0735 71.1445C54.9897 71.0888 54.8913 71.059 54.7906 71.059C54.7237 71.059 54.6575 71.0721 54.5958 71.0976C54.534 71.1231 54.4779 71.1605 54.4306 71.2077C54.3833 71.2548 54.3458 71.3108 54.3202 71.3723C54.2946 71.4339 54.2815 71.4999 54.2815 71.5666Z" fill="#00E76A"/>
<path d="M60.6426 72.8356C60.6426 72.9699 60.696 73.0988 60.7912 73.194C60.8864 73.2891 61.0155 73.3428 61.1502 73.3432V73.3432C61.2853 73.3432 61.4148 73.2897 61.5102 73.1945C61.6057 73.0993 61.6594 72.9702 61.6594 72.8356V72.8356C61.6596 72.7689 61.6465 72.7028 61.621 72.6411C61.5955 72.5794 61.558 72.5234 61.5107 72.4762C61.4634 72.429 61.4072 72.3916 61.3453 72.3662C61.2834 72.3408 61.2171 72.3278 61.1502 72.328C61.0834 72.328 61.0173 72.3411 60.9556 72.3666C60.8939 72.3922 60.8379 72.4296 60.7908 72.4767C60.7436 72.5239 60.7062 72.5799 60.6808 72.6414C60.6554 72.703 60.6424 72.769 60.6426 72.8356V72.8356Z" fill="#00E76A"/>
<path d="M60.6426 70.2991C60.6426 70.4335 60.696 70.5623 60.7912 70.6575C60.8864 70.7526 61.0155 70.8063 61.1502 70.8067C61.2853 70.8067 61.4148 70.7532 61.5102 70.658C61.6057 70.5628 61.6594 70.4337 61.6594 70.2991C61.6594 70.1645 61.6057 70.0354 61.5102 69.9402C61.4148 69.845 61.2853 69.7915 61.1502 69.7915V69.7915C61.0155 69.7919 60.8864 69.8456 60.7912 69.9407C60.696 70.0359 60.6426 70.1647 60.6426 70.2991Z" fill="#00E76A"/>
<path d="M58.0985 72.8356C58.0947 72.9045 58.105 72.9734 58.1289 73.0382C58.1527 73.103 58.1895 73.1622 58.2371 73.2123C58.2847 73.2624 58.342 73.3023 58.4056 73.3296C58.4692 73.3569 58.5376 73.3709 58.6068 73.3709C58.676 73.3709 58.7445 73.3569 58.8081 73.3296C58.8717 73.3023 58.929 73.2624 58.9766 73.2123C59.0241 73.1622 59.061 73.103 59.0848 73.0382C59.1086 72.9734 59.119 72.9045 59.1152 72.8356V72.8356C59.119 72.7667 59.1086 72.6977 59.0848 72.633C59.061 72.5682 59.0241 72.5089 58.9766 72.4588C58.929 72.4087 58.8717 72.3688 58.8081 72.3416C58.7445 72.3143 58.676 72.3002 58.6068 72.3002C58.5376 72.3002 58.4692 72.3143 58.4056 72.3416C58.342 72.3688 58.2847 72.4087 58.2371 72.4588C58.1895 72.5089 58.1527 72.5682 58.1289 72.633C58.105 72.6977 58.0947 72.7667 58.0985 72.8356V72.8356Z" fill="#00E76A"/>
<path d="M58.0985 70.2991C58.0985 70.3995 58.1283 70.4976 58.1843 70.5811C58.2402 70.6646 58.3197 70.7296 58.4128 70.7681C58.5058 70.8065 58.6082 70.8165 58.7069 70.7969C58.8057 70.7774 58.8964 70.729 58.9676 70.658C59.0388 70.587 59.0873 70.4966 59.107 70.3981C59.1266 70.2997 59.1165 70.1976 59.078 70.1049C59.0395 70.0121 58.9742 69.9328 58.8905 69.877C58.8067 69.8213 58.7083 69.7915 58.6076 69.7915C58.4726 69.7915 58.3431 69.845 58.2476 69.9402C58.1521 70.0354 58.0985 70.1645 58.0985 70.2991Z" fill="#00E76A"/>
<path d="M59.3698 71.5666C59.3698 71.667 59.3996 71.7651 59.4556 71.8486C59.5115 71.9321 59.591 71.9971 59.6841 72.0355C59.7771 72.074 59.8795 72.084 59.9782 72.0644C60.077 72.0448 60.1677 71.9965 60.2389 71.9255C60.3101 71.8545 60.3586 71.7641 60.3783 71.6656C60.3979 71.5671 60.3878 71.4651 60.3493 71.3723C60.3108 71.2796 60.2455 71.2003 60.1618 71.1445C60.078 71.0888 59.9796 71.059 59.8789 71.059C59.7439 71.059 59.6144 71.1125 59.5189 71.2077C59.4234 71.3029 59.3698 71.432 59.3698 71.5666V71.5666Z" fill="#00E76A"/>
<path d="M56.8256 71.5666C56.8256 71.667 56.8555 71.7651 56.9114 71.8486C56.9674 71.9321 57.0469 71.9971 57.1399 72.0355C57.2329 72.074 57.3353 72.084 57.4341 72.0644C57.5328 72.0448 57.6236 71.9965 57.6948 71.9255C57.766 71.8545 57.8145 71.7641 57.8341 71.6656C57.8537 71.5671 57.8437 71.4651 57.8051 71.3723C57.7666 71.2796 57.7013 71.2003 57.6176 71.1445C57.5339 71.0888 57.4354 71.059 57.3348 71.059C57.1997 71.059 57.0702 71.1125 56.9747 71.2077C56.8793 71.3029 56.8256 71.432 56.8256 71.5666Z" fill="#00E76A"/>
<path d="M33.9297 67.9982L62.4078 67.9982C62.6875 67.9986 62.9556 68.1095 63.1533 68.3067C63.351 68.5038 63.4623 68.7711 63.4627 69.0499L63.4627 79.1532C63.4619 79.4318 63.3505 79.6986 63.1528 79.8954C62.9551 80.0922 62.6872 80.203 62.4079 80.2034L33.9297 80.2034C33.6513 80.2018 33.3847 80.0905 33.1883 79.8937C32.9918 79.697 32.8813 79.4308 32.8809 79.1532L32.8809 69.062C32.8793 68.9234 32.9052 68.7858 32.9571 68.6572C33.009 68.5286 33.0859 68.4115 33.1834 68.3127C33.2809 68.2138 33.397 68.1351 33.5251 68.0812C33.6531 68.0272 33.7907 67.999 33.9297 67.9982V67.9982ZM62.1975 69.2596L34.1401 69.2596L34.1401 78.9405L62.1975 78.9405L62.1975 69.2596Z" fill="#00E76A"/>
<path d="M38.1384 72.8432C37.4397 72.8432 36.8732 73.4079 36.8732 74.1046C36.8732 74.8012 37.4397 75.366 38.1384 75.366C38.8372 75.366 39.4037 74.8012 39.4037 74.1046C39.4037 73.4079 38.8372 72.8432 38.1384 72.8432Z" fill="#00E76A"/>
<defs>
<radialGradient id="paint0_radial_2_607" cx="0" cy="0" r="1" gradientUnits="userSpaceOnUse" gradientTransform="translate(49.2296 49.2862) rotate(90) scale(49.1038)">
<stop stop-color="#463550"/>
<stop offset="0.0001" stop-color="#34343E"/>
<stop offset="1" stop-color="#121214"/>
</radialGradient>
<linearGradient id="paint1_linear_2_607" x1="47.5" y1="8.5" x2="9.26318" y2="77.2265" gradientUnits="userSpaceOnUse">
<stop stop-color="#3F354F"/>
<stop offset="1" stop-color="#131018"/>
</linearGradient>
<linearGradient id="paint2_linear_2_607" x1="31.5224" y1="74.3566" x2="82.7882" y2="74.3531" gradientUnits="userSpaceOnUse">
<stop stop-color="#80499D"/>
<stop offset="1" stop-color="#211527"/>
</linearGradient>
</defs>
</svg>
