<svg width="99" height="99" viewBox="0 0 99 99" fill="none" xmlns="http://www.w3.org/2000/svg">
<circle cx="49.1038" cy="49.1038" r="47.6038" fill="url(#paint0_radial_2_606)" stroke="#00E76A" stroke-width="3"/>
<path d="M64.4333 45.4876L64.4315 34.3152C64.4147 33.3011 64.0001 32.3342 63.2771 31.6229C62.554 30.9116 61.5803 30.5129 60.5661 30.5128C59.5519 30.5127 58.5783 30.9113 57.8553 31.6225C57.1323 32.3337 56.7179 33.3006 56.7013 34.3147L56.7002 34.6605C56.6716 33.4704 56.1787 32.3386 55.3268 31.5071C54.4748 30.6755 53.3315 30.21 52.141 30.2102C50.9506 30.2104 49.8075 30.6763 48.9561 31.5081C48.1047 32.34 47.6124 33.4719 47.5845 34.662L47.5845 34.6128C47.5845 33.4167 47.1093 32.2697 46.2635 31.4239C45.4177 30.5781 44.2706 30.1029 43.0746 30.1028C41.8786 30.1027 40.7315 30.5778 39.8859 31.4235C39.0402 32.2691 38.5652 33.4161 38.5652 34.6122L38.5645 40.0844C38.5859 39.5146 38.4922 38.9463 38.2889 38.4136C38.0856 37.8809 37.7769 37.3946 37.3814 36.9839C36.9858 36.5732 36.5115 36.2465 35.9868 36.0233C35.4621 35.8002 34.8978 35.6851 34.3276 35.6851C33.7574 35.685 33.1931 35.8 32.6684 36.0231C32.1438 36.2462 31.6695 36.5729 31.274 36.9835C30.8785 37.3942 30.5699 37.8804 30.3667 38.4131C30.1635 38.9458 30.0698 39.514 30.0913 40.0838L30.0933 53.693C30.0925 58.3686 33.7287 61.1633 35.4709 65.0189C36.8855 68.1464 30.7436 75.7917 34.6365 75.7919L48.9348 68.5284C59.3693 80.4403 59.8532 64.9146 59.8532 64.9146C59.8532 64.9146 66.3623 56.5981 66.3619 50.598C66.363 48.7166 65.6772 46.8994 64.4333 45.4876Z" fill="url(#paint1_linear_2_606)"/>
<path d="M37.7686 49.0693C37.3169 49.5218 36.7801 49.8803 36.1891 50.1243C35.5982 50.3683 34.9648 50.4929 34.3254 50.491V50.491C33.6865 50.4909 33.0538 50.3651 32.4635 50.1205C31.8733 49.876 31.3369 49.5176 30.8851 49.0658C30.4333 48.614 30.0749 48.0777 29.8304 47.4874C29.5858 46.8971 29.46 46.2644 29.4599 45.6255L29.4596 40.0816C29.4578 39.4425 29.5828 38.8093 29.8274 38.2189C30.072 37.6284 30.4312 37.0923 30.8844 36.6416V36.6416C31.5647 35.9613 32.4316 35.4979 33.3753 35.3102C34.319 35.1226 35.2972 35.219 36.1862 35.5872C37.0753 35.9555 37.8351 36.5792 38.3698 37.3793C38.9044 38.1794 39.1898 39.12 39.1898 40.0823L39.1902 45.6262C39.193 46.2657 39.0687 46.8993 38.8247 47.4904C38.5806 48.0814 38.2217 48.6181 37.7686 49.0693V49.0693ZM31.7763 37.5336C31.4404 37.8683 31.1743 38.2663 30.9933 38.7046C30.8123 39.1429 30.72 39.6128 30.7219 40.087L30.7223 45.631C30.7231 46.5876 31.1036 47.5049 31.7801 48.1815C32.4567 48.858 33.374 49.2385 34.3307 49.2394V49.2394C34.8044 49.2394 35.2734 49.1462 35.7111 48.965C36.1487 48.7837 36.5464 48.5181 36.8813 48.1831C37.2162 47.8482 37.4819 47.4506 37.6631 47.0129C37.8443 46.5753 37.9376 46.1062 37.9375 45.6325L37.9371 40.0886C37.9374 39.375 37.7259 38.6773 37.3295 38.0838C36.933 37.4904 36.3695 37.0278 35.7101 36.7547C35.0508 36.4816 34.3253 36.4103 33.6254 36.5497C32.9255 36.6891 32.2828 37.033 31.7785 37.5378L31.7763 37.5336Z" fill="#00E76A"/>
<path d="M40.0799 45.0663L58.6206 45.0686C60.2209 45.0697 61.7815 45.5671 63.0874 46.4922C64.3934 47.4173 65.3803 48.7246 65.9122 50.234L66.3608 50.1794C66.3606 48.1267 65.5449 46.1581 64.0934 44.7065C62.6418 43.2549 60.6731 42.4393 58.6204 42.439L40.0797 42.4367C39.8805 42.4364 39.6833 42.4755 39.4992 42.5516C39.3152 42.6276 39.148 42.7393 39.0071 42.8801C38.8663 43.0209 38.7547 43.1882 38.6786 43.3722C38.6025 43.5562 38.5635 43.7535 38.5637 43.9527L38.5638 44.9013C38.567 45.2886 38.6024 45.6751 38.6699 46.0565C38.7763 45.7677 38.9683 45.5182 39.2202 45.3412C39.4721 45.1643 39.772 45.0684 40.0799 45.0663V45.0663Z" fill="#3F354F"/>
<path d="M66.9861 50.5949L65.7292 50.5948C65.7277 48.7092 64.9779 46.9011 63.6444 45.5677C62.311 44.2342 60.5029 43.4844 58.6173 43.4829L40.0776 43.4817C39.9608 43.4812 39.8452 43.504 39.7373 43.5487C39.6294 43.5933 39.5314 43.659 39.4492 43.7418V43.7418C39.3666 43.8241 39.3013 43.9219 39.2568 44.0296C39.2123 44.1373 39.1897 44.2527 39.1901 44.3692L39.1891 45.3167C39.1891 46.1164 39.3466 46.9082 39.6526 47.647C39.9586 48.3858 40.4072 49.057 40.9726 49.6225C41.5381 50.188 42.2094 50.6365 42.9482 50.9425C43.687 51.2486 44.4788 51.4061 45.2784 51.406L54.4861 51.4067L54.4862 52.6636L45.2838 52.6684C43.3354 52.6679 41.4668 51.8936 40.089 50.5158C38.7112 49.1379 37.9369 47.2694 37.9364 45.3209L37.9374 44.3734C37.936 44.0919 37.9906 43.813 38.0981 43.5529C38.2057 43.2928 38.3639 43.0567 38.5637 42.8585V42.8585C38.7622 42.6591 38.9984 42.5011 39.2584 42.3937C39.5184 42.2862 39.7972 42.2313 40.0786 42.2322L58.6183 42.2335C60.8355 42.2364 62.9612 43.1181 64.5297 44.6854C66.0981 46.2527 66.9815 48.3777 66.9861 50.5949V50.5949Z" fill="#00E76A"/>
<path d="M46.9539 34.6613L46.9545 42.8574L48.2113 42.8575L48.2107 34.6614L46.9539 34.6613Z" fill="#00E76A"/>
<path d="M59.9013 78.2722C59.8429 78.3304 59.7736 78.3766 59.6973 78.408C59.6211 78.4394 59.5394 78.4555 59.4569 78.4552L35.4483 78.4536C35.3657 78.4538 35.2839 78.4377 35.2075 78.4062C35.1312 78.3747 35.0618 78.3284 35.0034 78.27C34.945 78.2116 34.8987 78.1422 34.8672 78.0659C34.8357 77.9895 34.8196 77.9077 34.8198 77.8251L34.8189 65.3047C31.4611 61.8655 29.464 57.5431 29.4637 53.6951L29.4617 40.0837C29.46 39.4446 29.585 38.8114 29.8296 38.221C30.0741 37.6305 30.4334 37.0944 30.8866 36.6437C31.7989 35.7314 33.0363 35.219 34.3265 35.2191C35.6168 35.2191 36.8542 35.7318 37.7667 36.6442C37.8245 36.702 37.8823 36.7598 37.9391 36.8166L37.9389 34.6067C37.938 33.4631 38.3187 32.3518 39.0209 31.4492C39.7231 30.5466 40.7065 29.9042 41.8153 29.6238C42.924 29.3435 44.0947 29.4412 45.1417 29.9016C46.1887 30.3619 47.0521 31.1586 47.5951 32.1652C47.9822 31.459 48.5284 30.8526 49.1905 30.3941C49.8525 29.9355 50.6123 29.6374 51.4095 29.5233C52.2068 29.4092 53.0197 29.4822 53.7839 29.7366C54.5481 29.991 55.2426 30.4198 55.8124 30.9891C56.1427 31.3192 56.4275 31.6919 56.6594 32.0973C57.149 31.2344 57.9104 30.5578 58.825 30.173C59.7395 29.7883 60.7557 29.717 61.715 29.9704C62.6744 30.2237 63.5229 30.7874 64.1284 31.5736C64.7339 32.3597 65.0622 33.3241 65.0621 34.3163L65.0629 45.2564C66.3084 46.76 66.9885 48.6521 66.9851 50.6045C66.9962 53.4206 66.3827 56.2041 65.1887 58.7545C63.9947 61.3048 62.25 63.5586 60.0803 65.3535L60.0811 77.8332C60.0808 77.9974 60.0163 78.155 59.9013 78.2722ZM36.0778 77.1967L58.8273 77.1982L58.8276 65.0494C58.8274 64.9551 58.8484 64.8621 58.8889 64.777C58.9295 64.692 58.9886 64.6171 59.062 64.558C61.1535 62.8845 62.84 60.7603 63.9957 58.3438C65.1515 55.9273 65.7466 53.281 65.7367 50.6023C65.7375 48.8737 65.1073 47.2042 63.9644 45.9073C63.8638 45.7917 63.808 45.6439 63.807 45.4908L63.8073 34.3183C63.8072 33.4596 63.4661 32.6361 62.8588 32.0289C62.2516 31.4216 61.4281 31.0805 60.5694 31.0804C59.7107 31.0804 58.8872 31.4214 58.28 32.0286C57.6729 32.6357 57.3318 33.4592 57.3319 34.3179L57.333 34.6637C57.333 34.7463 57.3167 34.828 57.2852 34.9042C57.2536 34.9805 57.2073 35.0498 57.1489 35.1081C57.0906 35.1665 57.0213 35.2128 56.9451 35.2443C56.8688 35.2759 56.7871 35.2922 56.7046 35.2922C56.622 35.2922 56.5403 35.2759 56.464 35.2443C56.3878 35.2127 56.3185 35.1664 56.2601 35.108C56.2018 35.0497 56.1555 34.9804 56.1239 34.9041C56.0923 34.8279 56.076 34.7462 56.076 34.6636C56.0204 33.6598 55.5829 32.7153 54.8532 32.0236C54.1234 31.332 53.1568 30.9457 52.1514 30.944C51.1461 30.9423 50.1782 31.3253 49.4463 32.0144C48.7144 32.7036 48.2739 33.6466 48.2152 34.6503L48.2152 34.6631C48.2152 34.8298 48.149 34.9896 48.0311 35.1075C47.9133 35.2253 47.7534 35.2916 47.5867 35.2915C47.4201 35.2915 47.2602 35.2253 47.1423 35.1074C47.0245 34.9896 46.9582 34.8297 46.9582 34.663V34.663L46.9582 34.6502L46.9582 34.6138C46.9494 33.5902 46.5365 32.6116 45.8095 31.8909C45.0826 31.1703 44.1004 30.766 43.0768 30.766C42.0532 30.7661 41.0712 31.1706 40.3445 31.8913C39.6178 32.6121 39.2054 33.5908 39.1969 34.6143L39.193 40.0769C39.193 40.2435 39.1268 40.4034 39.009 40.5213C38.8911 40.6391 38.7313 40.7053 38.5646 40.7053C38.3979 40.7053 38.238 40.6391 38.1202 40.5212C38.0023 40.4033 37.9361 40.2435 37.9361 40.0768V40.0768C37.9298 39.1239 37.5469 38.2121 36.8709 37.5404C36.1948 36.8688 35.2806 36.4918 34.3277 36.4917C33.3748 36.4916 32.4606 36.8685 31.7846 37.5401C31.1087 38.2117 30.7259 39.1234 30.7198 40.0763L30.7218 53.6877C30.722 57.2787 32.6548 61.357 35.8928 64.5949C36.0106 64.7129 36.0772 64.8725 36.078 65.0393L36.0778 77.1967Z" fill="#00E76A"/>
<path d="M56.0715 34.6622L56.072 42.8583L57.3287 42.8584L57.3282 34.6623L56.0715 34.6622Z" fill="#00E76A"/>
<path d="M47.5414 61.7092L46.2844 61.7091L46.2843 59.5014C46.2844 57.3554 47.1369 55.2973 48.6543 53.7799C50.1717 52.2625 52.2298 51.41 54.3759 51.4099L54.3759 52.6668C52.5632 52.667 50.8249 53.3872 49.5433 54.6688C48.2616 55.9505 47.5415 57.6888 47.5413 59.5015L47.5414 61.7092Z" fill="#00E76A"/>
<path d="M62.0155 79.0974L62.0148 68.8072C62.0148 68.6399 61.8792 68.5044 61.712 68.5043L33.1914 68.5024C33.0241 68.5024 32.8886 68.638 32.8886 68.8052L32.8893 79.0954C32.8893 79.2627 33.0249 79.3982 33.1921 79.3983L61.7127 79.4002C61.88 79.4002 62.0155 79.2646 62.0155 79.0974Z" fill="url(#paint2_linear_2_606)"/>
<path d="M40.1163 77.7409C40.1165 77.8073 40.1035 77.8731 40.0782 77.9345C40.0529 77.9958 40.0156 78.0516 39.9687 78.0986C39.9217 78.1455 39.866 78.1827 39.8046 78.2081C39.7432 78.2334 39.6774 78.2464 39.611 78.2462C39.477 78.2461 39.3485 78.1928 39.2538 78.0981C39.159 78.0033 39.1057 77.8748 39.1056 77.7408C39.1057 77.6068 39.159 77.4783 39.2537 77.3836C39.3485 77.2889 39.477 77.2356 39.611 77.2355V77.2355C39.745 77.2356 39.8734 77.2889 39.9682 77.3837C40.063 77.4784 40.1162 77.6069 40.1163 77.7409V77.7409Z" fill="#00E76A"/>
<path d="M40.1162 75.2141C40.1163 75.2805 40.1034 75.3463 40.078 75.4077C40.0527 75.4691 40.0155 75.5248 39.9685 75.5718C39.9216 75.6188 39.8658 75.656 39.8044 75.6813C39.743 75.7066 39.6773 75.7196 39.6108 75.7195V75.7195C39.4802 75.7144 39.3565 75.659 39.2658 75.5648C39.1751 75.4705 39.1245 75.3448 39.1245 75.2141C39.1245 75.0833 39.1751 74.9576 39.2658 74.8634C39.3565 74.7692 39.4801 74.7138 39.6108 74.7087V74.7087C39.7448 74.7089 39.8733 74.7621 39.968 74.8569C40.0628 74.9517 40.1161 75.0801 40.1162 75.2141V75.2141Z" fill="#00E76A"/>
<path d="M42.6431 77.7411C42.6381 77.8718 42.5827 77.9954 42.4885 78.0861C42.3942 78.1767 42.2686 78.2274 42.1378 78.2274C42.007 78.2274 41.8813 78.1767 41.7871 78.086C41.6929 77.9953 41.6374 77.8717 41.6324 77.741V77.741C41.6374 77.6103 41.6928 77.4867 41.7871 77.396C41.8813 77.3053 42.007 77.2547 42.1377 77.2547C42.2685 77.2547 42.3942 77.3054 42.4884 77.3961C42.5826 77.4867 42.6381 77.6104 42.6431 77.7411V77.7411Z" fill="#00E76A"/>
<path d="M42.6429 75.2143C42.643 75.3144 42.6134 75.4122 42.5579 75.4954C42.5023 75.5786 42.4234 75.6435 42.331 75.6818C42.2385 75.7201 42.1368 75.7302 42.0387 75.7107C41.9405 75.6912 41.8504 75.643 41.7796 75.5722C41.7089 75.5015 41.6607 75.4113 41.6412 75.3132C41.6217 75.2151 41.6317 75.1133 41.67 75.0209C41.7084 74.9285 41.7732 74.8495 41.8565 74.794C41.9397 74.7384 42.0375 74.7088 42.1376 74.7089C42.204 74.7088 42.2697 74.7217 42.3311 74.7471C42.3925 74.7724 42.4483 74.8097 42.4952 74.8566C42.5422 74.9036 42.5794 74.9594 42.6048 75.0207C42.6301 75.0821 42.6431 75.1479 42.6429 75.2143V75.2143Z" fill="#00E76A"/>
<path d="M41.3795 73.9508C41.3796 74.0509 41.3499 74.1487 41.2944 74.2319C41.2389 74.3151 41.1599 74.38 41.0675 74.4183C40.9751 74.4566 40.8733 74.4667 40.7752 74.4472C40.6771 74.4277 40.5869 74.3795 40.5162 74.3087C40.4454 74.238 40.3972 74.1478 40.3777 74.0497C40.3582 73.9516 40.3683 73.8498 40.4066 73.7574C40.4449 73.665 40.5098 73.586 40.593 73.5305C40.6762 73.475 40.774 73.4454 40.8741 73.4454C40.9405 73.4453 41.0063 73.4583 41.0677 73.4836C41.129 73.509 41.1848 73.5462 41.2318 73.5931C41.2787 73.6401 41.316 73.6959 41.3413 73.7572C41.3666 73.8186 41.3796 73.8844 41.3795 73.9508V73.9508Z" fill="#00E76A"/>
<path d="M41.3796 76.4776C41.3797 76.5777 41.3501 76.6755 41.2946 76.7587C41.239 76.8419 41.1601 76.9068 41.0676 76.9451C40.9752 76.9834 40.8735 76.9935 40.7754 76.974C40.6772 76.9545 40.5871 76.9063 40.5163 76.8355C40.4456 76.7648 40.3974 76.6746 40.3779 76.5765C40.3584 76.4784 40.3684 76.3766 40.4067 76.2842C40.4451 76.1918 40.5099 76.1128 40.5931 76.0573C40.6764 76.0017 40.7742 75.9721 40.8742 75.9722C41.0082 75.9723 41.1367 76.0256 41.2315 76.1204C41.3262 76.2151 41.3795 76.3436 41.3796 76.4776V76.4776Z" fill="#00E76A"/>
<path d="M35.0628 77.7406C35.0627 77.8746 35.0094 78.003 34.9147 78.0978C34.8199 78.1925 34.6915 78.2458 34.5575 78.2459C34.4235 78.2458 34.295 78.1925 34.2002 78.0977C34.1055 78.003 34.0522 77.8745 34.0521 77.7405V77.7405C34.0522 77.6065 34.1054 77.478 34.2002 77.3833C34.2949 77.2885 34.4234 77.2353 34.5574 77.2352V77.2352C34.6914 77.2353 34.8199 77.2886 34.9146 77.3833C35.0094 77.4781 35.0627 77.6066 35.0628 77.7406V77.7406Z" fill="#00E76A"/>
<path d="M35.0626 75.2138C35.0625 75.3478 35.0093 75.4763 34.9145 75.571C34.8198 75.6658 34.6913 75.719 34.5573 75.7191V75.7191C34.4266 75.7141 34.303 75.6586 34.2123 75.5644C34.1216 75.4702 34.0709 75.3445 34.0709 75.2137C34.0709 75.083 34.1216 74.9573 34.2122 74.8631C34.3029 74.7688 34.4266 74.7134 34.5572 74.7084V74.7084C34.6912 74.7085 34.8197 74.7618 34.9145 74.8566C35.0092 74.9513 35.0625 75.0798 35.0626 75.2138V75.2138Z" fill="#00E76A"/>
<path d="M37.5896 77.7407C37.5846 77.8714 37.5291 77.995 37.4349 78.0857C37.3407 78.1764 37.215 78.227 37.0843 78.227C36.9535 78.227 36.8278 78.1764 36.7336 78.0857C36.6393 77.995 36.5839 77.8713 36.5789 77.7407V77.7407C36.5763 77.6727 36.5874 77.6048 36.6116 77.5412C36.6358 77.4777 36.6726 77.4196 36.7198 77.3706C36.767 77.3216 36.8236 77.2826 36.8862 77.2559C36.9488 77.2293 37.0161 77.2156 37.0842 77.2156C37.1522 77.2156 37.2196 77.2293 37.2822 77.256C37.3448 77.2826 37.4014 77.3216 37.4486 77.3706C37.4958 77.4197 37.5326 77.4777 37.5568 77.5413C37.581 77.6049 37.5922 77.6727 37.5896 77.7407V77.7407Z" fill="#00E76A"/>
<path d="M37.5894 75.2139C37.5895 75.314 37.5599 75.4118 37.5044 75.495C37.4488 75.5783 37.3698 75.6431 37.2774 75.6814C37.185 75.7198 37.0833 75.7298 36.9851 75.7103C36.887 75.6908 36.7969 75.6426 36.7261 75.5719C36.6554 75.5011 36.6072 75.411 36.5877 75.3128C36.5682 75.2147 36.5782 75.113 36.6165 75.0205C36.6548 74.9281 36.7197 74.8491 36.8029 74.7936C36.8861 74.7381 36.984 74.7085 37.084 74.7085C37.218 74.7087 37.3465 74.7619 37.4413 74.8567C37.536 74.9515 37.5893 75.0799 37.5894 75.2139V75.2139Z" fill="#00E76A"/>
<path d="M36.3259 73.9505C36.326 74.0505 36.2964 74.1484 36.2409 74.2316C36.1853 74.3148 36.1064 74.3797 36.0139 74.418C35.9215 74.4563 35.8198 74.4664 35.7217 74.4468C35.6235 74.4273 35.5334 74.3792 35.4626 74.3084C35.3919 74.2377 35.3437 74.1475 35.3242 74.0494C35.3047 73.9512 35.3147 73.8495 35.353 73.7571C35.3914 73.6647 35.4562 73.5857 35.5394 73.5302C35.6227 73.4746 35.7205 73.445 35.8205 73.4451C35.9545 73.4452 36.083 73.4985 36.1778 73.5932C36.2725 73.688 36.3258 73.8165 36.3259 73.9505V73.9505Z" fill="#00E76A"/>
<path d="M36.3261 76.4772C36.3262 76.5773 36.2966 76.6751 36.241 76.7583C36.1855 76.8416 36.1065 76.9064 36.0141 76.9447C35.9217 76.9831 35.82 76.9931 35.7218 76.9736C35.6237 76.9541 35.5336 76.9059 35.4628 76.8352C35.392 76.7644 35.3439 76.6743 35.3244 76.5761C35.3049 76.478 35.3149 76.3763 35.3532 76.2838C35.3915 76.1914 35.4564 76.1125 35.5396 76.0569C35.6228 76.0014 35.7207 75.9718 35.8207 75.9719C35.9547 75.972 36.0832 76.0252 36.178 76.12C36.2727 76.2148 36.326 76.3432 36.3261 76.4772V76.4772Z" fill="#00E76A"/>
<path d="M38.8527 73.9507C38.8528 74.0507 38.8232 74.1485 38.7676 74.2318C38.7121 74.315 38.6331 74.3799 38.5407 74.4182C38.4483 74.4565 38.3466 74.4665 38.2484 74.447C38.1503 74.4275 38.0601 74.3793 37.9894 74.3086C37.9186 74.2378 37.8705 74.1477 37.8509 74.0495C37.8314 73.9514 37.8415 73.8497 37.8798 73.7573C37.9181 73.6648 37.983 73.5859 38.0662 73.5303C38.1494 73.4748 38.2472 73.4452 38.3473 73.4453C38.4813 73.4454 38.6098 73.4987 38.7045 73.5934C38.7993 73.6882 38.8526 73.8167 38.8527 73.9507V73.9507Z" fill="#00E76A"/>
<path d="M38.8529 76.4774C38.853 76.5775 38.8234 76.6753 38.7678 76.7585C38.7123 76.8417 38.6333 76.9066 38.5409 76.9449C38.4485 76.9832 38.3468 76.9933 38.2486 76.9738C38.1505 76.9543 38.0603 76.9061 37.9896 76.8353C37.9188 76.7646 37.8706 76.6744 37.8511 76.5763C37.8316 76.4781 37.8417 76.3764 37.88 76.284C37.9183 76.1916 37.9832 76.1126 38.0664 76.0571C38.1496 76.0015 38.2474 75.9719 38.3475 75.972C38.4815 75.9721 38.61 76.0254 38.7047 76.1202C38.7995 76.2149 38.8528 76.3434 38.8529 76.4774V76.4774Z" fill="#00E76A"/>
<path d="M40.116 72.6873C40.1162 72.7537 40.1032 72.8195 40.0779 72.8809C40.0525 72.9423 40.0153 72.998 39.9683 73.045C39.9214 73.092 39.8656 73.1292 39.8043 73.1545C39.7429 73.1798 39.6771 73.1928 39.6107 73.1927V73.1927C39.4767 73.1925 39.3482 73.1393 39.2534 73.0445C39.1587 72.9498 39.1054 72.8213 39.1053 72.6873V72.6873C39.1054 72.5533 39.1587 72.4248 39.2534 72.3301C39.3481 72.2353 39.4766 72.182 39.6106 72.1819V72.1819C39.7446 72.1821 39.8731 72.2353 39.9679 72.3301C40.0626 72.4249 40.1159 72.5533 40.116 72.6873V72.6873Z" fill="#00E76A"/>
<path d="M40.1158 70.1606C40.116 70.227 40.103 70.2928 40.0777 70.3541C40.0523 70.4155 40.0151 70.4713 39.9682 70.5182C39.9212 70.5652 39.8654 70.6024 39.8041 70.6277C39.7427 70.6531 39.6769 70.6661 39.6105 70.6659V70.6659C39.5425 70.6685 39.4747 70.6574 39.4111 70.6331C39.3475 70.6089 39.2895 70.5721 39.2404 70.5249C39.1914 70.4777 39.1524 70.4211 39.1257 70.3585C39.0991 70.2959 39.0854 70.2286 39.0854 70.1605C39.0853 70.0925 39.0991 70.0251 39.1257 69.9625C39.1523 69.8999 39.1913 69.8433 39.2404 69.7961C39.2894 69.7489 39.3474 69.7121 39.411 69.6879C39.4746 69.6637 39.5424 69.6526 39.6104 69.6552V69.6552C39.7444 69.6553 39.8729 69.7086 39.9677 69.8033C40.0624 69.8981 40.1157 70.0266 40.1158 70.1606V70.1606Z" fill="#00E76A"/>
<path d="M42.6428 72.6875C42.6454 72.7555 42.6343 72.8234 42.61 72.8869C42.5858 72.9505 42.549 73.0086 42.5018 73.0576C42.4547 73.1066 42.3981 73.1456 42.3355 73.1723C42.2728 73.1989 42.2055 73.2126 42.1375 73.2126C42.0694 73.2126 42.0021 73.1989 41.9394 73.1722C41.8768 73.1456 41.8202 73.1066 41.773 73.0576C41.7259 73.0085 41.6891 72.9505 41.6648 72.8869C41.6406 72.8233 41.6295 72.7555 41.6321 72.6875V72.6875C41.6371 72.5568 41.6925 72.4331 41.7867 72.3425C41.8809 72.2518 42.0066 72.2012 42.1374 72.2012C42.2682 72.2012 42.3938 72.2518 42.4881 72.3425C42.5823 72.4332 42.6378 72.5569 42.6428 72.6875V72.6875Z" fill="#00E76A"/>
<path d="M41.6372 70.1618C41.6372 70.0617 41.6668 69.9639 41.7223 69.8807C41.7778 69.7974 41.8568 69.7326 41.9492 69.6943C42.0417 69.6559 42.1434 69.6459 42.2415 69.6654C42.3396 69.6849 42.4298 69.7331 42.5005 69.8038C42.5713 69.8746 42.6195 69.9648 42.639 70.0629C42.6585 70.161 42.6485 70.2627 42.6101 70.3552C42.5718 70.4476 42.507 70.5266 42.4237 70.5821C42.3405 70.6376 42.2427 70.6672 42.1426 70.6671C42.0086 70.667 41.8801 70.6138 41.7854 70.519C41.6906 70.4242 41.6374 70.2958 41.6372 70.1618V70.1618Z" fill="#00E76A"/>
<path d="M41.3793 71.4241C41.3794 71.5241 41.3498 71.6219 41.2942 71.7052C41.2387 71.7884 41.1597 71.8532 41.0673 71.8916C40.9749 71.9299 40.8732 71.9399 40.775 71.9204C40.6769 71.9009 40.5868 71.8527 40.516 71.782C40.4452 71.7112 40.3971 71.6211 40.3776 71.5229C40.3581 71.4248 40.3681 71.3231 40.4064 71.2307C40.4447 71.1382 40.5096 71.0593 40.5928 71.0037C40.676 70.9482 40.7739 70.9186 40.8739 70.9187C41.0079 70.9188 41.1364 70.9721 41.2312 71.0668C41.3259 71.1616 41.3792 71.2901 41.3793 71.4241V71.4241Z" fill="#00E76A"/>
<path d="M35.0625 72.687C35.0624 72.821 35.0091 72.9495 34.9144 73.0442C34.8196 73.139 34.6911 73.1922 34.5571 73.1923V73.1923C34.4231 73.1922 34.2946 73.1389 34.1999 73.0442C34.1051 72.9494 34.0519 72.8209 34.0517 72.6869V72.6869C34.0518 72.5529 34.1051 72.4245 34.1998 72.3297C34.2946 72.235 34.4231 72.1817 34.5571 72.1816C34.6911 72.1817 34.8195 72.235 34.9143 72.3298C35.0091 72.4245 35.0624 72.553 35.0625 72.687V72.687Z" fill="#00E76A"/>
<path d="M35.0623 70.1602C35.0622 70.2942 35.0089 70.4227 34.9142 70.5175C34.8194 70.6122 34.6909 70.6655 34.5569 70.6656V70.6656C34.4263 70.6605 34.3026 70.6051 34.2119 70.5109C34.1212 70.4166 34.0706 70.2909 34.0706 70.1602C34.0706 70.0294 34.1212 69.9037 34.2119 69.8095C34.3026 69.7153 34.4262 69.6599 34.5569 69.6549V69.6549C34.6909 69.655 34.8194 69.7082 34.9141 69.803C35.0089 69.8978 35.0622 70.0262 35.0623 70.1602V70.1602Z" fill="#00E76A"/>
<path d="M37.5892 72.6872C37.5842 72.8179 37.5288 72.9415 37.4346 73.0322C37.3403 73.1229 37.2147 73.1735 37.0839 73.1735C36.9531 73.1735 36.8274 73.1228 36.7332 73.0322C36.639 72.9415 36.5835 72.8178 36.5785 72.6871V72.6871C36.5835 72.5565 36.6389 72.4328 36.7332 72.3422C36.8274 72.2515 36.9531 72.2008 37.0838 72.2008C37.2146 72.2008 37.3403 72.2515 37.4345 72.3422C37.5288 72.4329 37.5842 72.5565 37.5892 72.6872V72.6872Z" fill="#00E76A"/>
<path d="M37.5891 70.1604C37.5891 70.2605 37.5595 70.3583 37.504 70.4415C37.4485 70.5247 37.3695 70.5896 37.2771 70.6279C37.1846 70.6662 37.0829 70.6763 36.9848 70.6568C36.8866 70.6373 36.7965 70.5891 36.7257 70.5183C36.655 70.4476 36.6068 70.3574 36.5873 70.2593C36.5678 70.1612 36.5778 70.0594 36.6162 69.967C36.6545 69.8746 36.7193 69.7956 36.8026 69.7401C36.8858 69.6845 36.9836 69.6549 37.0837 69.655C37.2177 69.6551 37.3461 69.7084 37.4409 69.8032C37.5357 69.8979 37.5889 70.0264 37.5891 70.1604V70.1604Z" fill="#00E76A"/>
<path d="M36.3257 71.4237C36.3258 71.5238 36.2962 71.6216 36.2407 71.7048C36.1852 71.788 36.1062 71.8529 36.0138 71.8912C35.9213 71.9296 35.8196 71.9396 35.7215 71.9201C35.6233 71.9006 35.5332 71.8524 35.4624 71.7816C35.3917 71.7109 35.3435 71.6207 35.324 71.5226C35.3045 71.4245 35.3145 71.3227 35.3528 71.2303C35.3912 71.1379 35.456 71.0589 35.5393 71.0034C35.6225 70.9479 35.7203 70.9183 35.8204 70.9183C35.9544 70.9184 36.0828 70.9717 36.1776 71.0665C36.2724 71.1612 36.3256 71.2897 36.3257 71.4237V71.4237Z" fill="#00E76A"/>
<path d="M38.8525 71.4239C38.8526 71.5239 38.823 71.6218 38.7675 71.705C38.7119 71.7882 38.633 71.8531 38.5405 71.8914C38.4481 71.9297 38.3464 71.9397 38.2483 71.9202C38.1501 71.9007 38.06 71.8525 37.9892 71.7818C37.9185 71.711 37.8703 71.6209 37.8508 71.5228C37.8313 71.4246 37.8413 71.3229 37.8796 71.2305C37.9179 71.1381 37.9828 71.0591 38.066 71.0035C38.1493 70.948 38.2471 70.9184 38.3471 70.9185C38.4811 70.9186 38.6096 70.9719 38.7044 71.0666C38.7991 71.1614 38.8524 71.2899 38.8525 71.4239V71.4239Z" fill="#00E76A"/>
<path d="M62.335 79.7253C62.2385 79.8229 62.1236 79.9005 61.997 79.9536C61.8704 80.0067 61.7346 80.0343 61.5973 80.0347L33.306 80.0306C33.0285 80.03 32.7624 79.9195 32.5662 79.7232C32.3699 79.527 32.2594 79.261 32.2588 78.9834L32.2581 68.9191C32.2584 68.6412 32.3689 68.3748 32.5654 68.1783C32.7619 67.9818 33.0283 67.8713 33.3062 67.871L61.5933 67.8729C61.7309 67.8729 61.8673 67.9 61.9945 67.9527C62.1217 68.0053 62.2372 68.0825 62.3346 68.1799C62.4319 68.2772 62.5091 68.3928 62.5618 68.52C62.6145 68.6472 62.6416 68.7835 62.6415 68.9212L62.6422 78.9855C62.6424 79.123 62.6153 79.2591 62.5626 79.3861C62.5098 79.5131 62.4325 79.6284 62.335 79.7253V79.7253ZM33.5179 78.7758L61.3852 78.7755L61.3846 69.1395L33.5183 69.1323L33.5179 78.7758Z" fill="#00E76A"/>
<path d="M58.3046 74.8428C58.7954 74.352 58.7953 73.5563 58.3045 73.0655C57.8137 72.5747 57.018 72.5746 56.5272 73.0654C56.0365 73.5561 56.0365 74.3518 56.5273 74.8427C57.0182 75.3335 57.8139 75.3335 58.3046 74.8428Z" fill="#00E76A"/>
<defs>
<radialGradient id="paint0_radial_2_606" cx="0" cy="0" r="1" gradientUnits="userSpaceOnUse" gradientTransform="translate(49.1038 49.1038) rotate(90) scale(49.1038)">
<stop stop-color="#463550"/>
<stop offset="0.0001" stop-color="#34343E"/>
<stop offset="1" stop-color="#121214"/>
</radialGradient>
<linearGradient id="paint1_linear_2_606" x1="47.2851" y1="29.0986" x2="45" y2="106.5" gradientUnits="userSpaceOnUse">
<stop stop-color="#3F354F"/>
<stop offset="1" stop-color="#131018"/>
</linearGradient>
<linearGradient id="paint2_linear_2_606" x1="30.9172" y1="74.2013" x2="81.8396" y2="74.1944" gradientUnits="userSpaceOnUse">
<stop stop-color="#80499D"/>
<stop offset="1" stop-color="#211527"/>
</linearGradient>
</defs>
</svg>
