<svg width="99" height="99" viewBox="0 0 99 99" fill="none" xmlns="http://www.w3.org/2000/svg">
<circle cx="49.8963" cy="49.1038" r="47.6038" fill="url(#paint0_radial_2_608)" stroke="#00E76A" stroke-width="3"/>
<path d="M62.9542 18.4093C62.4726 18.3405 61.9826 18.3673 61.5121 18.488C61.0415 18.6088 60.5998 18.8211 60.2121 19.113C59.8244 19.4049 59.4982 19.7705 59.2524 20.189C59.0066 20.6076 58.8458 21.0708 58.7793 21.5521L55.867 41.7963L52.8895 21.6003C52.7509 20.6276 52.2317 19.7482 51.4462 19.1557C50.6607 18.5632 49.6732 18.3061 48.701 18.4409C47.7288 18.5757 46.8515 19.0914 46.2621 19.8746C45.6727 20.6577 45.4195 21.6442 45.5582 22.6169L47.7352 37.9303C47.1638 37.4355 46.4628 37.1152 45.7158 37.0075C44.9688 36.8997 44.2074 37.0092 43.5226 37.3228C42.8378 37.6364 42.2585 38.1408 41.854 38.7758C41.4494 39.4109 41.2367 40.1497 41.2411 40.904L41.2503 44.4558C41.2482 43.4118 40.8315 42.4097 40.0918 41.67C39.3521 40.9303 38.35 40.5136 37.306 40.5115C36.2619 40.5094 35.2615 40.9222 34.5247 41.659C33.7879 42.3958 33.3752 43.3962 33.3772 44.4402L33.3984 55.1257C33.4064 58.3599 34.4177 61.5159 36.2928 64.1585L36.3204 77.5293L60.2815 77.5639L60.2549 64.16C61.9267 61.7538 62.9369 58.7372 62.929 55.2612C62.9039 42.6245 62.9123 46.8474 66.1147 22.5957C66.2491 21.6236 65.9915 20.6365 65.3989 19.8514C64.8062 19.0663 63.9268 18.5476 62.9542 18.4093V18.4093Z" fill="url(#paint1_linear_2_608)"/>
<path d="M45.1477 66.1562L45.1438 64.2135C45.1416 63.268 45.3258 62.3319 45.6858 61.459C46.0458 60.5861 46.5745 59.7933 47.2419 59.126C47.9092 58.4587 48.7019 57.9299 49.5749 57.5699C50.4478 57.2099 51.3838 57.0258 52.3294 57.0279L52.3319 58.2824C51.5511 58.2806 50.7781 58.4327 50.0573 58.7299C49.3364 59.0272 48.6818 59.4638 48.1307 60.0148C47.5797 60.5659 47.1431 61.2205 46.8458 61.9414C46.5485 62.6623 46.3965 63.4352 46.3983 64.216L46.4021 66.1586L45.1477 66.1562Z" fill="#00E76A"/>
<path d="M37.306 40.5115C36.7887 40.5095 36.2766 40.6096 35.7989 40.8062C35.3213 41.0027 34.8875 41.2917 34.5225 41.6568C34.1575 42.0218 33.8684 42.4556 33.6719 42.9332C33.4754 43.4109 33.3752 43.923 33.3772 44.4402L33.3868 49.2487C33.3868 49.7659 33.489 50.2785 33.6874 50.7569C33.8858 51.2354 34.1766 51.6703 34.5431 52.0368C34.9095 52.4032 35.3445 52.694 35.8229 52.8924C36.3013 53.0908 36.8139 53.193 37.3311 53.193V53.193C37.8483 53.1951 38.3605 53.0949 38.8381 52.8984C39.3158 52.7019 39.7496 52.4128 40.1146 52.0478C40.4796 51.6828 40.7687 51.249 40.9652 50.7713C41.1617 50.2937 41.2618 49.7815 41.2598 49.2643L41.2503 44.4558C41.2503 43.9386 41.1481 43.4261 40.9497 42.9476C40.7513 42.4692 40.4605 42.0343 40.094 41.6678C39.7276 41.3013 39.2926 41.0106 38.8142 40.8121C38.3357 40.6137 37.8232 40.5115 37.306 40.5115V40.5115Z" fill="#3F354F"/>
<path d="M45.1741 36.971C44.6569 36.969 44.1448 37.0691 43.6671 37.2656C43.1894 37.4622 42.7557 37.7512 42.3907 38.1162C42.0256 38.4812 41.7366 38.915 41.5401 39.3927C41.3435 39.8703 41.2434 40.3825 41.2454 40.8997L41.2598 49.2622C41.2623 50.3061 41.6792 51.3079 42.4188 52.0475C43.1584 52.7872 44.1603 53.204 45.2042 53.2065C46.2484 53.2084 47.2491 52.7955 47.986 52.0586C48.723 51.3216 49.1359 50.321 49.134 49.2767L49.1163 40.9132C49.116 40.3963 49.0137 39.8842 48.8153 39.4061C48.6169 38.9281 48.3262 38.4935 47.96 38.1273C47.5938 37.7611 47.1592 37.4704 46.6812 37.272C46.2031 37.0736 45.691 36.9713 45.1741 36.971V36.971Z" fill="#3F354F"/>
<path d="M34.1027 52.4771C33.6766 52.0534 33.3385 51.5496 33.1079 50.9951C32.8774 50.4405 32.7589 49.8461 32.7595 49.2464L32.75 44.4379C32.7485 43.2275 33.2274 42.0679 34.0816 41.2137C34.9358 40.3595 36.0954 39.8806 37.3058 39.8821V39.8821C38.5162 39.8854 39.6777 40.3689 40.5353 41.2265C41.3929 42.0841 41.8764 43.2456 41.8797 44.456L41.8892 49.2645C41.8909 50.1673 41.6249 51.0493 41.1248 51.799C40.6247 52.5487 39.9129 53.1323 39.0795 53.4762C38.246 53.82 37.3284 53.9087 36.4426 53.7308C35.5567 53.553 34.7424 53.1167 34.1027 52.4771V52.4771ZM39.6503 42.1115C39.343 41.8025 38.9776 41.5574 38.5754 41.3902C38.1732 41.223 37.7422 41.1372 37.3072 41.1377V41.1377C36.8722 41.1366 36.4415 41.2213 36.0398 41.3869C35.6382 41.5525 35.2734 41.7957 34.9664 42.1028C34.6594 42.4098 34.4161 42.7746 34.2505 43.1762C34.0849 43.5779 34.0002 44.0085 34.0013 44.4436L34.0108 49.2521C34.0117 49.6871 34.0982 50.118 34.2655 50.5202C34.4328 50.9224 34.6775 51.2881 34.9857 51.5963C35.2939 51.9045 35.6595 52.1492 36.0617 52.3165C36.464 52.4837 36.8949 52.5703 37.3299 52.5711C37.7649 52.572 38.1955 52.4872 38.597 52.3215C38.9986 52.1558 39.3633 51.9125 39.6703 51.6056C39.9772 51.2986 40.2205 50.9339 40.3862 50.5323C40.5519 50.1308 40.6367 49.7002 40.6358 49.2652L40.6263 44.4589C40.627 44.0231 40.5411 43.5911 40.3736 43.1881C40.206 42.7851 39.9602 42.4192 39.6503 42.1115V42.1115Z" fill="#00E76A"/>
<path d="M41.9789 52.4895C41.5535 52.0656 41.2157 51.5622 40.9848 51.0081C40.754 50.4541 40.6346 49.8603 40.6337 49.2609L40.6171 40.8985C40.6298 39.6978 41.1152 38.5524 41.9679 37.7103C42.8207 36.8683 43.9722 36.3975 45.173 36.3999C46.3738 36.4022 47.5272 36.8776 48.3833 37.7231C49.2394 38.5685 49.7293 39.7158 49.7468 40.9166L49.7623 49.2801C49.7642 50.1826 49.4983 51.0644 48.9983 51.8139C48.4984 52.5633 47.7868 53.1467 46.9535 53.4903C46.1203 53.8339 45.2029 53.9222 44.3174 53.744C43.4319 53.5659 42.6181 53.1293 41.9789 52.4895V52.4895ZM47.5206 38.5688C47.0569 38.1048 46.4665 37.7881 45.8241 37.659C45.1818 37.5298 44.5163 37.594 43.9118 37.8433C43.3074 38.0926 42.7913 38.5159 42.4287 39.0596C42.066 39.6033 41.8733 40.243 41.8748 40.8978L41.8946 49.2698C41.8963 50.1484 42.247 50.9916 42.8694 51.6141C43.4919 52.2365 44.3351 52.5872 45.2136 52.5889C46.0922 52.5907 46.934 52.2433 47.554 51.6233C48.174 51.0034 48.5213 50.1615 48.5196 49.283L48.5041 40.9195C48.504 40.4826 48.417 40.0498 48.2482 39.6463C48.0793 39.2427 47.832 38.8764 47.5206 38.5688V38.5688Z" fill="#00E76A"/>
<path d="M62.9322 55.2601C62.9304 54.2511 62.7298 53.2516 62.342 52.3186C61.9541 51.3856 61.3865 50.5374 60.6716 49.8225C59.9568 49.1077 59.1086 48.5401 58.1756 48.1522C57.2426 47.7643 56.2431 47.5638 55.2341 47.562L43.2664 47.5383C42.9989 47.5376 42.7341 47.5897 42.4871 47.6915C42.2401 47.7933 42.0159 47.9429 41.8271 48.1316C41.6383 48.3204 41.4887 48.5447 41.3869 48.7916C41.2851 49.0386 41.2331 49.3034 41.2337 49.5709V49.5709C41.237 51.0683 41.8348 52.5055 42.8957 53.5664C43.9566 54.6273 45.3937 55.2251 46.8911 55.2283L52.9306 55.2403" fill="#3F354F"/>
<path d="M62.932 57.3544C62.9302 56.3453 62.7296 55.3457 62.3416 54.4126C61.9537 53.4795 61.386 52.6312 60.671 51.9163C59.9561 51.2013 59.1078 50.6336 58.1747 50.2457C57.2416 49.8578 56.242 49.6571 55.2329 49.6553L43.2651 49.6316C42.141 49.6294 42.067 50.5407 42.0703 51.6659L41.6428 51.665C41.649 54.783 43.7603 55.2243 46.8783 55.2304L52.9177 55.2424" fill="#3F354F"/>
<path d="M42.4532 54.0131C41.8675 53.4307 41.4027 52.7382 41.0859 51.9758C40.769 51.2134 40.6065 50.3963 40.6076 49.5718C40.6069 49.2221 40.675 48.876 40.8082 48.5532C40.9414 48.2304 41.137 47.9372 41.3837 47.6904C41.6305 47.4436 41.9237 47.2481 42.2465 47.1149C42.5693 46.9817 42.9154 46.9136 43.2651 46.9143L55.2329 46.938C57.4371 46.9424 59.5528 47.8223 61.1145 49.384C62.6762 50.9457 63.5561 53.0614 63.5605 55.2656L62.306 55.2631C62.3015 53.393 61.5546 51.5982 60.2296 50.2732C58.9046 48.9481 57.1098 48.2013 55.2396 48.1968L43.2719 48.173C42.8984 48.1723 42.5405 48.32 42.2769 48.5836C42.0133 48.8472 41.8656 49.2051 41.8663 49.5786C41.8674 50.2382 41.9984 50.8916 42.2519 51.5016C42.5054 52.1115 42.8764 52.666 43.3437 53.1333C43.8111 53.6007 44.3655 53.9717 44.9755 54.2252C45.5854 54.4787 46.2389 54.6097 46.8985 54.6107L52.9368 54.6238L52.9393 55.8782L46.8945 55.8588C46.0701 55.8599 45.253 55.6973 44.4906 55.3805C43.7282 55.0637 43.0357 54.5989 42.4532 54.0131V54.0131Z" fill="#00E76A"/>
<path d="M35.8789 77.9622C35.8203 77.904 35.7738 77.8348 35.7419 77.7586C35.71 77.6824 35.6935 77.6008 35.6932 77.5184L35.667 64.2983C33.7925 61.5986 32.7825 58.3954 32.7712 55.1149L32.75 44.4294C32.7476 43.5163 33.0193 42.6246 33.5298 41.8697C34.0403 41.1147 34.7663 40.5312 35.6137 40.1946C36.4611 39.858 37.391 39.7839 38.2832 39.9818C39.1753 40.1796 39.9886 40.6404 40.6179 41.3045L40.6171 40.8899C40.6166 40.1389 40.8016 39.4 41.1556 38.739C41.5096 38.078 42.0216 37.5153 42.6463 37.1008C43.2709 36.6863 43.9889 36.4328 44.7364 36.3628C45.4839 36.2929 46.2379 36.4087 46.9313 36.6999L44.9375 22.7023C44.8266 21.5899 45.1497 20.4795 45.8394 19.603C46.529 18.7266 47.5318 18.1519 48.6381 17.9992C49.7444 17.8465 50.8686 18.1274 51.7758 18.7834C52.6829 19.4394 53.3029 20.4197 53.5059 21.5193L55.8616 37.4442L58.1604 21.4622C58.3184 20.3254 58.9218 19.2997 59.8378 18.6108C60.7538 17.9219 61.9075 17.6261 63.0449 17.7886C64.1824 17.9512 65.2105 18.5586 65.903 19.4774C66.5956 20.3961 66.8959 21.5509 66.7379 22.6877C65.9357 28.7619 65.3235 33.0958 64.8831 36.2663C63.5311 45.8346 63.5311 45.8346 63.5573 55.2645C63.5786 58.4393 62.6471 61.5436 60.8833 64.1762L60.9141 77.5737C60.9143 77.6561 60.8982 77.7376 60.8669 77.8137C60.8355 77.8897 60.7894 77.9588 60.7313 78.0169C60.6732 78.075 60.6041 78.1211 60.5281 78.1525C60.452 78.1838 60.3705 78.1999 60.2881 78.1997L36.3216 78.1469C36.2394 78.1467 36.158 78.1303 36.082 78.0986C36.006 78.0669 35.937 78.0206 35.8789 77.9622V77.9622ZM39.6503 42.1115C39.1864 41.6482 38.596 41.3322 37.9539 41.2034C37.3118 41.0747 36.6466 41.139 36.0425 41.3882C35.4384 41.6374 34.9224 42.0603 34.5596 42.6036C34.1969 43.1468 34.0037 43.786 34.0045 44.4404L34.0257 55.1259C34.0376 58.2163 35.0095 61.2304 36.8071 63.7513C36.8819 63.8567 36.9221 63.9827 36.9221 64.1117L36.9475 76.9022L59.6541 76.9365L59.6284 63.9814C59.6278 63.8555 59.6656 63.7326 59.7367 63.629C61.4253 61.1717 62.3192 58.2534 62.2985 55.2663C62.2797 45.7498 62.2797 45.7498 63.6347 36.0886C64.0793 32.9223 64.6873 28.5885 65.4895 22.5164C65.5453 22.1166 65.5217 21.7094 65.4201 21.3181C65.3185 20.9268 65.141 20.559 64.8975 20.2358C64.6541 19.9125 64.3495 19.6401 64.0013 19.4341C63.653 19.2282 63.2679 19.0926 62.8679 19.0353C62.4678 18.9779 62.0607 18.9999 61.6698 19.0999C61.2789 19.1999 60.9118 19.3761 60.5895 19.6182C60.2672 19.8604 59.996 20.1638 59.7914 20.5113C59.5868 20.8587 59.4528 21.2433 59.3971 21.6431L56.4901 41.8948C56.4675 42.0432 56.3925 42.1784 56.2786 42.2759C56.1648 42.3734 56.0196 42.4267 55.8694 42.4263C55.7192 42.4259 55.5739 42.3717 55.4598 42.2735C55.3457 42.1754 55.2704 42.0398 55.2474 41.8913L52.2689 21.6899C52.2156 21.2869 52.083 20.8982 51.8788 20.5461C51.6746 20.194 51.4028 19.8857 51.0791 19.6388C50.7554 19.3919 50.3863 19.2115 49.993 19.1078C49.5997 19.0042 49.1901 18.9794 48.7879 19.0349C48.3856 19.0904 47.9987 19.2252 47.6494 19.4314C47.3001 19.6375 46.9954 19.911 46.7529 20.2361C46.5104 20.5611 46.3349 20.9312 46.2365 21.325C46.1382 21.7189 46.1189 22.1286 46.1799 22.5305L48.3601 37.8407C48.378 37.9669 48.357 38.0955 48.2999 38.2092C48.2428 38.3229 48.1524 38.4164 48.0406 38.4772C47.9289 38.538 47.8011 38.5632 47.6744 38.5496C47.5477 38.5359 47.4279 38.484 47.3312 38.4007C46.8499 37.9875 46.2608 37.7205 45.6337 37.6314C45.0067 37.5424 44.3679 37.6349 43.7932 37.8981C43.2185 38.1613 42.732 38.5841 42.3914 39.1163C42.0508 39.6485 41.8704 40.2679 41.8716 40.901L41.8797 44.456C41.88 44.6224 41.8142 44.7818 41.6968 44.8992C41.5795 45.0166 41.42 45.0823 41.2537 45.082C41.0873 45.0817 40.9277 45.0153 40.8098 44.8974C40.6919 44.7796 40.6255 44.6199 40.6252 44.4535C40.6251 44.0187 40.5389 43.5879 40.3716 43.1859C40.2043 42.784 39.9592 42.4188 39.6503 42.1115V42.1115Z" fill="#00E76A"/>
<path d="M62.926 79.3294L62.9057 69.0596C62.9054 68.8926 62.7698 68.7571 62.6029 68.7567L34.1387 68.7003C33.9718 68.7 33.8368 68.8351 33.8371 69.002L33.8575 79.2718C33.8578 79.4387 33.9934 79.5743 34.1603 79.5746L62.6244 79.631C62.7913 79.6313 62.9264 79.4963 62.926 79.3294Z" fill="url(#paint2_linear_2_608)"/>
<path d="M41.0687 77.933C41.069 77.9992 41.0562 78.0649 41.031 78.1261C41.0058 78.1873 40.9688 78.2429 40.922 78.2896C40.8753 78.3364 40.8197 78.3734 40.7585 78.3986C40.6973 78.4238 40.6316 78.4366 40.5654 78.4363V78.4363C40.4316 78.4359 40.3033 78.3825 40.2086 78.2878C40.1138 78.193 40.0604 78.0647 40.06 77.931V77.931C40.0598 77.7972 40.1128 77.6691 40.2071 77.5747C40.3015 77.4803 40.4296 77.4274 40.5634 77.4276C40.6971 77.428 40.8254 77.4814 40.9202 77.5761C41.0149 77.6709 41.0684 77.7992 41.0687 77.933V77.933Z" fill="#00E76A"/>
<path d="M41.0627 75.408C41.0629 75.4743 41.0501 75.5399 41.025 75.6011C40.9998 75.6623 40.9628 75.7179 40.916 75.7647C40.8692 75.8114 40.8136 75.8485 40.7524 75.8736C40.6912 75.8988 40.6256 75.9116 40.5593 75.9113V75.9113C40.4289 75.9061 40.3054 75.8505 40.2147 75.7563C40.124 75.6621 40.0732 75.5365 40.0729 75.406C40.0727 75.2755 40.123 75.1502 40.2133 75.0563C40.3036 74.9624 40.4269 74.9074 40.5573 74.9026V74.9026C40.691 74.903 40.8194 74.9564 40.9141 75.0512C41.0089 75.1459 41.0623 75.2742 41.0627 75.408V75.408Z" fill="#00E76A"/>
<path d="M43.5894 77.9347C43.5847 78.0651 43.5296 78.1884 43.4357 78.2787C43.3419 78.3691 43.2165 78.4194 43.086 78.4191C42.9555 78.4188 42.83 78.3681 42.7358 78.2774C42.6415 78.1867 42.586 78.0632 42.5807 77.9327C42.578 77.8649 42.589 77.7972 42.613 77.7338C42.6371 77.6704 42.6737 77.6125 42.7207 77.5637C42.7677 77.5148 42.8241 77.476 42.8865 77.4496C42.9489 77.4231 43.0161 77.4095 43.084 77.4097C43.1519 77.4098 43.2192 77.4236 43.2817 77.4503C43.3443 77.4771 43.4008 77.5161 43.448 77.5651C43.4952 77.6141 43.532 77.6721 43.5563 77.7356C43.5806 77.7992 43.5919 77.8669 43.5894 77.9347Z" fill="#00E76A"/>
<path d="M43.5855 75.4162C43.5858 75.516 43.5564 75.6136 43.5012 75.6966C43.4459 75.7795 43.3672 75.8441 43.275 75.8822C43.1829 75.9202 43.0814 75.9301 42.9834 75.9104C42.8854 75.8907 42.7953 75.8425 42.7246 75.7717C42.6538 75.701 42.6056 75.6109 42.5859 75.5129C42.5663 75.415 42.5761 75.3135 42.6142 75.2213C42.6522 75.1291 42.7168 75.0504 42.7998 74.9952C42.8827 74.9399 42.9803 74.9106 43.0802 74.9108C43.1464 74.9108 43.2121 74.9239 43.2734 74.9493C43.3347 74.9747 43.3905 75.012 43.4374 75.0589C43.4844 75.1059 43.5216 75.1616 43.547 75.2229C43.5725 75.2842 43.5855 75.3499 43.5855 75.4162Z" fill="#00E76A"/>
<path d="M42.32 74.1506C42.3202 74.2505 42.2909 74.3481 42.2356 74.431C42.1804 74.514 42.1017 74.5786 42.0095 74.6166C41.9173 74.6547 41.8158 74.6645 41.7178 74.6449C41.6199 74.6252 41.5298 74.577 41.4591 74.5062C41.3883 74.4355 41.3401 74.3454 41.3204 74.2474C41.3007 74.1494 41.3106 74.0479 41.3486 73.9558C41.3867 73.8636 41.4513 73.7849 41.5342 73.7296C41.6172 73.6744 41.7148 73.645 41.8146 73.6453C41.8809 73.6453 41.9466 73.6583 42.0079 73.6838C42.0692 73.7092 42.1249 73.7464 42.1719 73.7934C42.2188 73.8403 42.2561 73.8961 42.2815 73.9574C42.3069 74.0187 42.32 74.0844 42.32 74.1506V74.1506Z" fill="#00E76A"/>
<path d="M42.3282 76.6735C42.3285 76.7734 42.2991 76.8709 42.2438 76.9539C42.1886 77.0368 42.1099 77.1014 42.0177 77.1395C41.9255 77.1775 41.824 77.1874 41.7261 77.1677C41.6281 77.1481 41.538 77.0998 41.4673 77.0291C41.3965 76.9583 41.3483 76.8682 41.3286 76.7703C41.309 76.6723 41.3188 76.5708 41.3568 76.4786C41.3949 76.3865 41.4595 76.3078 41.5425 76.2525C41.6254 76.1972 41.723 76.1679 41.8228 76.1681C41.9566 76.1685 42.0849 76.2219 42.1797 76.3167C42.2744 76.4114 42.3278 76.5398 42.3282 76.6735V76.6735Z" fill="#00E76A"/>
<path d="M36.0231 77.9208C36.0232 78.0546 35.9703 78.1827 35.8759 78.2771C35.7816 78.3714 35.6534 78.4243 35.5197 78.4242V78.4242C35.4534 78.4242 35.3878 78.4111 35.3265 78.3857C35.2652 78.3603 35.2094 78.323 35.1625 78.2761C35.1155 78.2291 35.0783 78.1734 35.0528 78.1121C35.0274 78.0508 35.0143 77.9851 35.0144 77.9188V77.9188C35.0142 77.7851 35.0671 77.657 35.1615 77.5626C35.2559 77.4682 35.384 77.4153 35.5177 77.4155V77.4155C35.6514 77.4158 35.7798 77.4693 35.8745 77.564C35.9693 77.6588 36.0227 77.7871 36.0231 77.9208V77.9208Z" fill="#00E76A"/>
<path d="M36.0181 75.3991C36.0182 75.5328 35.9653 75.6609 35.871 75.7553C35.7766 75.8497 35.6485 75.9026 35.5147 75.9024V75.9024C35.3843 75.8972 35.2608 75.8416 35.1701 75.7474C35.0794 75.6532 35.0286 75.5276 35.0283 75.3971C35.0281 75.2666 35.0784 75.1413 35.1687 75.0474C35.259 74.9535 35.3823 74.8985 35.5127 74.8937V74.8937C35.6465 74.8941 35.7748 74.9475 35.8695 75.0422C35.9643 75.137 36.0177 75.2653 36.0181 75.3991V75.3991Z" fill="#00E76A"/>
<path d="M38.5448 77.9258C38.5401 78.0562 38.485 78.1795 38.3911 78.2698C38.2973 78.3601 38.1719 78.4104 38.0414 78.4102C37.9109 78.4099 37.7854 78.3591 37.6911 78.2684C37.5969 78.1777 37.5414 78.0542 37.5361 77.9238V77.9238C37.5334 77.8559 37.5443 77.7883 37.5684 77.7249C37.5924 77.6614 37.6291 77.6036 37.676 77.5547C37.723 77.5059 37.7794 77.4671 37.8419 77.4406C37.9043 77.4142 37.9715 77.4006 38.0394 77.4007C38.1073 77.4009 38.1746 77.4147 38.2371 77.4414C38.2996 77.4681 38.3562 77.5072 38.4034 77.5562C38.4506 77.6052 38.4874 77.6632 38.5117 77.7267C38.536 77.7902 38.5473 77.8579 38.5448 77.9258V77.9258Z" fill="#00E76A"/>
<path d="M38.5398 75.404C38.5401 75.5039 38.5108 75.6015 38.4555 75.6844C38.4002 75.7673 38.3215 75.8319 38.2293 75.87C38.1372 75.9081 38.0357 75.9179 37.9377 75.8982C37.8397 75.8786 37.7497 75.8303 37.6789 75.7596C37.6082 75.6888 37.5599 75.5988 37.5403 75.5008C37.5206 75.4028 37.5304 75.3013 37.5685 75.2092C37.6066 75.117 37.6712 75.0383 37.7541 74.983C37.8371 74.9277 37.9346 74.8984 38.0345 74.8987C38.1682 74.899 38.2965 74.9525 38.3913 75.0472C38.486 75.142 38.5395 75.2703 38.5398 75.404V75.404Z" fill="#00E76A"/>
<path d="M37.2764 74.1406C37.2767 74.2405 37.2474 74.3381 37.1921 74.421C37.1368 74.504 37.0581 74.5686 36.966 74.6066C36.8738 74.6447 36.7723 74.6545 36.6743 74.6349C36.5763 74.6152 36.4863 74.5669 36.4155 74.4962C36.3448 74.4254 36.2965 74.3354 36.2769 74.2374C36.2572 74.1394 36.267 74.0379 36.3051 73.9458C36.3432 73.8536 36.4078 73.7749 36.4907 73.7196C36.5737 73.6643 36.6712 73.635 36.7711 73.6353C36.9048 73.6356 37.0331 73.6891 37.1279 73.7838C37.2227 73.8786 37.2761 74.0069 37.2764 74.1406V74.1406Z" fill="#00E76A"/>
<path d="M37.2814 76.6624C37.2817 76.7623 37.2523 76.8599 37.1971 76.9428C37.1418 77.0258 37.0631 77.0903 36.971 77.1284C36.8788 77.1665 36.7773 77.1763 36.6793 77.1566C36.5813 77.137 36.4913 77.0887 36.4205 77.018C36.3498 76.9472 36.3015 76.8572 36.2819 76.7592C36.2622 76.6612 36.272 76.5597 36.3101 76.4676C36.3482 76.3754 36.4127 76.2967 36.4957 76.2414C36.5786 76.1862 36.6762 76.1568 36.7761 76.1571C36.9098 76.1574 37.0382 76.2109 37.1329 76.3056C37.2277 76.4004 37.2811 76.5287 37.2814 76.6624V76.6624Z" fill="#00E76A"/>
<path d="M39.7993 74.1446C39.7995 74.2444 39.7702 74.342 39.7149 74.425C39.6596 74.5079 39.5809 74.5725 39.4888 74.6106C39.3966 74.6486 39.2951 74.6584 39.1971 74.6388C39.0992 74.6191 39.0091 74.5709 38.9383 74.5001C38.8676 74.4294 38.8193 74.3393 38.7997 74.2413C38.78 74.1434 38.7899 74.0419 38.8279 73.9497C38.866 73.8575 38.9306 73.7788 39.0135 73.7236C39.0965 73.6683 39.194 73.6389 39.2939 73.6392C39.4276 73.6396 39.556 73.693 39.6507 73.7878C39.7455 73.8825 39.7989 74.0108 39.7993 74.1446V74.1446Z" fill="#00E76A"/>
<path d="M39.8032 76.6674C39.8035 76.7673 39.7741 76.8648 39.7189 76.9478C39.6636 77.0307 39.5849 77.0953 39.4927 77.1334C39.4006 77.1715 39.2991 77.1813 39.2011 77.1616C39.1031 77.142 39.013 77.0937 38.9423 77.023C38.8715 76.9522 38.8233 76.8622 38.8036 76.7642C38.784 76.6662 38.7938 76.5647 38.8319 76.4725C38.8699 76.3804 38.9345 76.3017 39.0175 76.2464C39.1004 76.1911 39.198 76.1618 39.2978 76.1621C39.4316 76.1624 39.5599 76.2159 39.6547 76.3106C39.7494 76.4054 39.8028 76.5337 39.8032 76.6674V76.6674Z" fill="#00E76A"/>
<path d="M41.0566 72.8873C41.0569 72.9535 41.0441 73.0192 41.0189 73.0804C40.9937 73.1416 40.9567 73.1972 40.9099 73.2439C40.8632 73.2907 40.8076 73.3277 40.7464 73.3529C40.6852 73.3781 40.6195 73.3909 40.5533 73.3906V73.3906C40.4195 73.3903 40.2912 73.3368 40.1965 73.2421C40.1017 73.1473 40.0483 73.019 40.0479 72.8853V72.8853C40.0477 72.7515 40.1007 72.6234 40.195 72.529C40.2894 72.4346 40.4175 72.3817 40.5513 72.3819V72.3819C40.685 72.3823 40.8133 72.4357 40.9081 72.5304C41.0028 72.6252 41.0563 72.7535 41.0566 72.8873V72.8873Z" fill="#00E76A"/>
<path d="M41.0516 70.3655C41.0519 70.4318 41.0391 70.4974 41.0139 70.5586C40.9887 70.6198 40.9517 70.6754 40.9049 70.7222C40.8582 70.769 40.8026 70.806 40.7414 70.8312C40.6802 70.8563 40.6145 70.8692 40.5483 70.8689C40.4178 70.8636 40.2943 70.808 40.2036 70.7138C40.113 70.6196 40.0621 70.4941 40.0619 70.3636C40.0616 70.233 40.1119 70.1077 40.2022 70.0139C40.2926 69.92 40.4159 69.8649 40.5463 69.8602V69.8602C40.68 69.8605 40.8083 69.9139 40.9031 70.0087C40.9978 70.1034 41.0513 70.2318 41.0516 70.3655V70.3655Z" fill="#00E76A"/>
<path d="M43.5784 72.8922C43.5736 73.0227 43.5185 73.146 43.4247 73.2363C43.3308 73.3266 43.2055 73.3769 43.075 73.3766C42.9445 73.3764 42.8189 73.3256 42.7247 73.2349C42.6305 73.1442 42.5749 73.0207 42.5697 72.8902V72.8902C42.5669 72.8224 42.5779 72.7547 42.602 72.6913C42.626 72.6279 42.6626 72.57 42.7096 72.5212C42.7566 72.4724 42.813 72.4335 42.8755 72.4071C42.9379 72.3806 43.0051 72.367 43.073 72.3672C43.1409 72.3673 43.2081 72.3811 43.2707 72.4079C43.3332 72.4346 43.3898 72.4736 43.437 72.5226C43.4842 72.5717 43.521 72.6297 43.5453 72.6932C43.5696 72.7567 43.5808 72.8244 43.5784 72.8922V72.8922Z" fill="#00E76A"/>
<path d="M42.5647 70.3685C42.5644 70.2686 42.5937 70.1711 42.649 70.0881C42.7043 70.0052 42.783 69.9406 42.8751 69.9025C42.9673 69.8644 43.0688 69.8546 43.1668 69.8743C43.2648 69.8939 43.3548 69.9422 43.4256 70.0129C43.4963 70.0837 43.5446 70.1737 43.5642 70.2717C43.5839 70.3697 43.5741 70.4712 43.536 70.5634C43.4979 70.6555 43.4333 70.7342 43.3504 70.7895C43.2674 70.8448 43.1699 70.8741 43.07 70.8738C42.9363 70.8735 42.8079 70.8201 42.7132 70.7253C42.6184 70.6306 42.565 70.5022 42.5647 70.3685V70.3685Z" fill="#00E76A"/>
<path d="M42.315 71.6289C42.3152 71.7287 42.2859 71.8263 42.2306 71.9093C42.1754 71.9922 42.0967 72.0568 42.0045 72.0949C41.9123 72.1329 41.8108 72.1428 41.7128 72.1231C41.6149 72.1034 41.5248 72.0552 41.4541 71.9844C41.3833 71.9137 41.3351 71.8236 41.3154 71.7257C41.2957 71.6277 41.3056 71.5262 41.3436 71.434C41.3817 71.3418 41.4463 71.2631 41.5292 71.2079C41.6122 71.1526 41.7098 71.1233 41.8096 71.1235C41.9434 71.1239 42.0717 71.1773 42.1664 71.2721C42.2612 71.3668 42.3146 71.4951 42.315 71.6289V71.6289Z" fill="#00E76A"/>
<path d="M36.0131 72.8773C36.0132 73.011 35.9603 73.1391 35.8659 73.2335C35.7716 73.3279 35.6434 73.3808 35.5097 73.3806V73.3806C35.4434 73.3807 35.3778 73.3676 35.3165 73.3422C35.2551 73.3167 35.1994 73.2795 35.1525 73.2325C35.1055 73.1856 35.0682 73.1298 35.0428 73.0685C35.0174 73.0072 35.0043 72.9416 35.0044 72.8753V72.8753C35.0042 72.7415 35.0571 72.6134 35.1515 72.5191C35.2459 72.4247 35.374 72.3718 35.5077 72.3719C35.6414 72.3723 35.7698 72.4257 35.8645 72.5205C35.9593 72.6152 36.0127 72.7436 36.0131 72.8773V72.8773Z" fill="#00E76A"/>
<path d="M36.0113 70.3566C36.0114 70.4903 35.9585 70.6184 35.8641 70.7128C35.7698 70.8072 35.6416 70.8601 35.5079 70.8599V70.8599C35.3775 70.8547 35.254 70.7991 35.1633 70.7049C35.0726 70.6107 35.0218 70.4851 35.0215 70.3546C35.0213 70.2241 35.0716 70.0988 35.1619 70.0049C35.2522 69.9111 35.3755 69.856 35.5059 69.8512V69.8512C35.6397 69.8516 35.768 69.905 35.8627 69.9998C35.9575 70.0945 36.0109 70.2228 36.0113 70.3566V70.3566Z" fill="#00E76A"/>
<path d="M38.5359 72.8812C38.5312 73.0116 38.4761 73.1349 38.3822 73.2252C38.2883 73.3155 38.163 73.3659 38.0325 73.3656C37.902 73.3653 37.7764 73.3145 37.6822 73.2239C37.588 73.1332 37.5324 73.0096 37.5272 72.8792V72.8792C37.5244 72.8113 37.5354 72.7437 37.5595 72.6803C37.5835 72.6169 37.6201 72.559 37.6671 72.5102C37.7141 72.4613 37.7705 72.4225 37.833 72.396C37.8954 72.3696 37.9626 72.356 38.0305 72.3561C38.0984 72.3563 38.1657 72.3701 38.2282 72.3968C38.2907 72.4235 38.3473 72.4626 38.3945 72.5116C38.4417 72.5606 38.4785 72.6186 38.5028 72.6821C38.5271 72.7456 38.5384 72.8134 38.5359 72.8812V72.8812Z" fill="#00E76A"/>
<path d="M38.5298 70.3605C38.5301 70.4604 38.5007 70.5579 38.4455 70.6409C38.3902 70.7238 38.3115 70.7884 38.2193 70.8265C38.1272 70.8645 38.0257 70.8744 37.9277 70.8547C37.8297 70.8351 37.7397 70.7868 37.6689 70.7161C37.5982 70.6453 37.5499 70.5553 37.5302 70.4573C37.5106 70.3593 37.5204 70.2578 37.5585 70.1656C37.5966 70.0735 37.6611 69.9948 37.7441 69.9395C37.827 69.8842 37.9246 69.8549 38.0245 69.8551C38.1582 69.8555 38.2865 69.9089 38.3813 70.0037C38.476 70.0984 38.5295 70.2268 38.5298 70.3605V70.3605Z" fill="#00E76A"/>
<path d="M37.2725 71.6178C37.2728 71.7177 37.2434 71.8153 37.1882 71.8982C37.1329 71.9812 37.0542 72.0458 36.962 72.0838C36.8699 72.1219 36.7684 72.1317 36.6704 72.112C36.5724 72.0924 36.4824 72.0441 36.4116 71.9734C36.3409 71.9026 36.2926 71.8126 36.273 71.7146C36.2533 71.6166 36.2631 71.5151 36.3012 71.423C36.3393 71.3308 36.4038 71.2521 36.4868 71.1968C36.5697 71.1416 36.6673 71.1122 36.7672 71.1125C36.9009 71.1128 37.0292 71.1663 37.124 71.261C37.2187 71.3558 37.2722 71.4841 37.2725 71.6178V71.6178Z" fill="#00E76A"/>
<path d="M39.7932 71.6239C39.7935 71.7237 39.7641 71.8213 39.7088 71.9043C39.6536 71.9872 39.5749 72.0518 39.4827 72.0899C39.3905 72.1279 39.2891 72.1378 39.1911 72.1181C39.0931 72.0984 39.003 72.0502 38.9323 71.9794C38.8615 71.9087 38.8133 71.8186 38.7936 71.7206C38.774 71.6227 38.7838 71.5212 38.8218 71.429C38.8599 71.3368 38.9245 71.2581 39.0075 71.2029C39.0904 71.1476 39.188 71.1182 39.2878 71.1185C39.4216 71.1189 39.5499 71.1723 39.6447 71.2671C39.7394 71.3618 39.7928 71.4901 39.7932 71.6239V71.6239Z" fill="#00E76A"/>
<path d="M33.5394 79.8949C33.4418 79.7983 33.3642 79.6835 33.3109 79.5571C33.2577 79.4306 33.2299 79.295 33.2291 79.158V79.158L33.2092 69.1137C33.2089 68.9763 33.2356 68.8403 33.2879 68.7134C33.3402 68.5866 33.4171 68.4714 33.514 68.3744C33.611 68.2775 33.7262 68.2006 33.853 68.1483C33.9798 68.096 34.1158 68.0693 34.2532 68.0696L62.4843 68.1255C62.6217 68.1258 62.7578 68.1531 62.8848 68.2059C63.0119 68.2587 63.1274 68.3359 63.2247 68.4333C63.322 68.5306 63.3993 68.6461 63.4521 68.7732C63.5049 68.9002 63.5322 69.0363 63.5325 69.1737L63.5524 79.2181C63.5523 79.4951 63.4426 79.7603 63.2471 79.9558C63.0516 80.1513 62.7864 80.261 62.5094 80.261L34.2762 80.2008C34.0001 80.2004 33.7351 80.0903 33.5394 79.8949V79.8949ZM34.4694 69.3288L34.4885 78.9457L62.3028 79.0008L62.2837 69.3839L34.4694 69.3288Z" fill="#00E76A"/>
<path d="M57.4385 75.0686C57.9293 75.5593 58.7234 75.5609 59.2123 75.0721C59.7011 74.5832 59.6995 73.7891 59.2087 73.2983C58.718 72.8075 57.9238 72.8059 57.435 73.2948C56.9461 73.7836 56.9477 74.5778 57.4385 75.0686Z" fill="#00E76A"/>
<defs>
<radialGradient id="paint0_radial_2_608" cx="0" cy="0" r="1" gradientUnits="userSpaceOnUse" gradientTransform="translate(49.8963 49.1038) rotate(90) scale(49.1038)">
<stop stop-color="#463550"/>
<stop offset="0.0001" stop-color="#34343E"/>
<stop offset="1" stop-color="#121214"/>
</radialGradient>
<linearGradient id="paint1_linear_2_608" x1="69.5" y1="6.5" x2="-20.1532" y2="91.6439" gradientUnits="userSpaceOnUse">
<stop stop-color="#3F354F"/>
<stop offset="1" stop-color="#131018"/>
</linearGradient>
<linearGradient id="paint2_linear_2_608" x1="31.8799" y1="74.3836" x2="82.7011" y2="74.2794" gradientUnits="userSpaceOnUse">
<stop stop-color="#80499D"/>
<stop offset="1" stop-color="#211527"/>
</linearGradient>
</defs>
</svg>
